<svg xmlns="http://www.w3.org/2000/svg" viewBox="0 0 120.3 174.61"><defs><style>.cls-1{fill:#db2620;}.cls-2{fill:#e94441;}.cls-3{fill:#dadada;}.cls-4{fill:#121815;}.cls-5{fill:#28282a;}.cls-6{fill:#efefef;}.cls-7{fill:#434345;}.cls-8{fill:#848383;}</style></defs><title>011Recurso 3Ing. Carlos</title><g id="Capa_2" data-name="Capa 2"><g id="Capa_1-2" data-name="Capa 1"><path class="cls-1" d="M116.39,25.47c-.36,3.36-2.22,6.09-3.9,8.84a43.56,43.56,0,0,1-8.79,10.44c-1.21,1-1.39,1.71-.25,3a49,49,0,0,0,11.75,9.66c.69.4,1.7.51,1.64,1.86s-1,1.44-1.72,1.83C105.76,66.25,96,67,85.82,63.83c-4.7-1.47-9.38-3-14.31-3.64a33.22,33.22,0,0,0-21.72,4.42,4.16,4.16,0,0,1-.22-2.15c.09-4.56.13-9.12.22-13.67.18-10,.05-19.95.05-29.93a30.65,30.65,0,0,1,8.73-2.56h3.25c-1.88,0-3.44,1.09-5.18,1.44-.43.09-.9.21-.87.75s.58.71,1.08.71a7.88,7.88,0,0,0,1.09-.07,43.75,43.75,0,0,1,13.22.35c5.36,1.08,10.16,3.6,15,6a34,34,0,0,0,21.32,3.58c3.13-.5,6.42-.64,8.5-3.63C116.08,25.27,116.24,25.31,116.39,25.47Z"/><path class="cls-2" d="M49.19,92.37c10.12,1.11,23.67,10.1,24.24,24.64a22.22,22.22,0,0,1-6.66,17.26c-8.31,8-14.52,17.66-21.81,26.46-1.73,2.09-2.12,2.13-3.82,0q-7.83-10-15.66-20A27.84,27.84,0,0,0,22,137.46a30.41,30.41,0,0,1-7.23-9.33c-4.66-9.88-2.19-20.59,5.56-28a30.79,30.79,0,0,1,15.83-7.8,7.52,7.52,0,0,0,1-.32c0,3,.07,6,.11,9a14.75,14.75,0,0,0-7.95,6.77c-.22-.8.77-2-.49-2.39s-1.78.76-2.5,1.44a1.55,1.55,0,0,0-.36,1.37A8.91,8.91,0,0,1,24.61,114c-1.45,2.33-.3,5.84,2.14,7.17a7.54,7.54,0,0,1,3.91,4.33,2.64,2.64,0,0,0,1.4,1.83c2.93,1.23,5,3.85,7.95,5.06.57.23,1.14.55.94,1.34-.47,1.86.68,2.21,2.13,2.25a26.24,26.24,0,0,0,5.8-.37c7.17-1.42,12.83-5,16.5-11.45a17.35,17.35,0,0,0,1.36-14.23c-1.31-4.3-3.63-7.76-8-9.57-1.44-.6-3-1.2-3.85-2.63a3.94,3.94,0,0,0-2.6-1.8c-1.06-.28-2.1-.58-3.16-.87A5.36,5.36,0,0,1,49.19,92.37Z"/><path class="cls-3" d="M71.37,95.69c3,1.54,5.15,4,7.14,6.63,4.68,6.12,7.42,13,7.11,20.79-.3,7.5-3.2,14-7.84,19.8-3.7,4.65-8.58,7.84-13.29,11.27-4,2.89-7.14,6.59-10.31,10.28q-3.63,4.22-7.19,8.47c-2.16,2.58-6.36,2-8.45-.51-4.31-5.19-8.51-10.48-13.38-15.17-2.95-2.83-6.47-4.92-9.69-7.4C8.56,144.55,3.19,138.13,1,129.45c-2.17-8.44-.55-16.23,3.76-23.62C9.17,98.2,16,93.57,24.07,90.55c1.36-.51,2.75-1,4.12-1.45h1.5a41.92,41.92,0,0,0-10.47,5.77C12.09,100.54,7.67,107.75,7,117c-.69,8.89,2.47,16.39,8.83,22.4,6.88,6.51,12.36,14.16,18.27,21.47,1.61,2,3.14,4,4.77,6a5.52,5.52,0,0,0,8.23.09c2.38-2.59,4.44-5.46,6.67-8.19,5.46-6.67,10.53-13.65,16.8-19.67A27.15,27.15,0,0,0,78.73,122c1.07-9.51-2.43-17.32-8.71-24.15a13.87,13.87,0,0,0-1.24-1.06C69.5,96.09,70.77,96.69,71.37,95.69Z"/><path class="cls-4" d="M29.35,107.84a14.75,14.75,0,0,1,7.95-6.77c.21,1.13-.25,1.65-1.34,2.16-3.59,1.67-6,4.26-5.94,8.55.19,1.1-.5,2.36.63,3.28C32,119.32,35.82,121.86,41,122c.76.77,1.7.25,2.55.39,1.81.2,3.48-.48,5.16-.95.53-.16,1.55-.29,1.29-1.2-.22-.71-1.13-.49-1.62-.34-1.31.42-1.61-.09-1.55-1.28a6.52,6.52,0,0,0-.31-1.23c-.23-1.44-.77-2.18-2.46-1.63a4.89,4.89,0,0,1-3.53-.58c-3.09-1.51-4.46-3.33-3-6.55.58,1.35.15,3.06,1.65,3.92a3.8,3.8,0,0,0,3.32,1.79,1.57,1.57,0,0,0,1.71-.9c.62-1,.83-3,3-1.84.5.26.4-.55.48-.92.48-2.17-.23-4.41.34-6.58,0-3.17,0-6.35,0-9.51.16-9,0-18,.15-27,.07-3.45,0-7,.06-10.48.12-4.36,0-8.71.08-13.06.22-8.59.07-17.19.08-25.79,0-.55,0-1.09,0-1.64,0-.78-.29-1.19-1.13-.75-1.38.73-2.93.62-4.41.89-.41,0-.85-.09-1.19.27a1,1,0,0,1-.22-.28.69.69,0,0,0-.71-.79L40.1,16H40c-.2-.51-.7-.49-1.11-.61-.09-.26-.18-.59-.53-.42s-.14.36,0,.53l-.05,1.1h-.95A5.72,5.72,0,0,0,36,12.25l.6-.36,2.21,1.82a4.67,4.67,0,0,0,2.53,1.1c1.53,1.53,3.24.57,4.73.11s.53-2,.75-3l1.09-.73c1.36,0,1.73-1.22,2.48-2,.34-.32,0-.89-.61-1a8.72,8.72,0,0,0,0-4l.39-1.1c2.15,3.4,1.82,6.8,0,10.16a6.61,6.61,0,0,0-.27,5.56c0,10,.13,20-.05,29.93-.09,4.55-.13,9.11-.22,13.67a4.16,4.16,0,0,0,.22,2.15c-.48.43-.36,1-.36,1.53l-.24,26.23a5.36,5.36,0,0,0,0,2.64c0,1.59,0,3.17-.07,4.75a1.71,1.71,0,0,0,1.2,1.95A12.73,12.73,0,0,1,53.76,104c2.86,2.53,3.74,5.74,3.83,9.48.08,3.32-.68,6.13-3,8.46-5.22,5.22-14.45,6.1-20.6,2a11.59,11.59,0,0,1-5.51-10.36A18.92,18.92,0,0,1,29.35,107.84Z"/><path class="cls-5" d="M30,111.78c-.1-4.29,2.35-6.88,5.94-8.55,1.09-.51,1.55-1,1.34-2.16,0-3-.07-6-.11-9,0-11.93.08-23.85.09-35.78q0-18.9,0-37.79c0-.61,0-1.21.07-1.82h.95l.14,0,.14,0c.39,1.28-.12,2.53-.11,3.81,0,10.34.05,20.68,0,31,0,1.46.55,2.89.15,4.35a3.23,3.23,0,0,0-.2,1.79q0,19.65,0,39.31a108.85,108.85,0,0,0,.7,15.63c-1.5-.86-1.07-2.57-1.65-3.92-1.42,3.22,0,5,3,6.55a4.89,4.89,0,0,0,3.53.58c1.69-.55,2.23.19,2.46,1.63a6.52,6.52,0,0,1,.31,1.23c-.06,1.19.24,1.7,1.55,1.28.49-.15,1.4-.37,1.62.34.26.91-.76,1-1.29,1.2-1.68.47-3.35,1.15-5.16.95-.24-1.95-1.71-.76-2.61-1a13.49,13.49,0,0,1-9.45-6.24C31,114,31.26,112.56,30,111.78Z"/><path class="cls-2" d="M116.39,25.47c-.15-.16-.31-.2-.45,0-2.08,3-5.37,3.13-8.5,3.63a34,34,0,0,1-21.32-3.58c-4.8-2.43-9.6-5-15-6a43.75,43.75,0,0,0-13.22-.35,7.88,7.88,0,0,1-1.09.07c-.5,0-1-.07-1.08-.71s.44-.66.87-.75c1.74-.35,3.3-1.45,5.18-1.44H58.57c7.57-1.29,14.73.15,21.61,3.32,2.76,1.28,5.46,2.66,8.2,4,8.06,3.86,16.39,4,24.87,1.69a23.39,23.39,0,0,1,2.29-.6C116.07,24.58,116.75,24.52,116.39,25.47Z"/><path class="cls-5" d="M36.62,11.89l-.6.36c-1.76-3.38-1.12-7.86,1.44-10.1a9.06,9.06,0,0,1,11-.56l.11.08.11.07L49,2a2,2,0,0,1,1.13,1.12l-.39,1.1A9.55,9.55,0,0,0,42.42,1.3c-2.65.13-5,1.93-5.33,4a4.9,4.9,0,0,0,.12,4C36.12,10,36.78,11,36.62,11.89Z"/><path class="cls-3" d="M31.11,88.74c.14-1,.91-.67,1.49-.73A1.37,1.37,0,0,1,31.11,88.74Z"/><path class="cls-6" d="M120.26,25.54c-.05,0-.13,0-.13-.05a.44.44,0,0,1,.05-.15l.12,0A.29.29,0,0,1,120.26,25.54Z"/><path class="cls-3" d="M111.24,50.32c.17.08.7-.19.37.38Z"/><path class="cls-3" d="M118.58,29.48c.39.25.34.49,0,.72C118.57,30,118.57,29.72,118.58,29.48Z"/><path class="cls-3" d="M30,89.11a.82.82,0,0,1,.77-.37A.89.89,0,0,1,30,89.11Z"/><path class="cls-4" d="M49,2l-.34-.28Z"/><polygon class="cls-4" points="48.56 1.67 48.45 1.59 48.54 1.57 48.56 1.67"/><path class="cls-1" d="M29.35,107.84a18.92,18.92,0,0,0-.88,5.75A11.59,11.59,0,0,0,34,124c6.15,4.07,15.38,3.19,20.6-2,2.33-2.33,3.09-5.14,3-8.46-.09-3.74-1-6.95-3.83-9.48a12.73,12.73,0,0,0-3.48-2.27,1.71,1.71,0,0,1-1.2-1.95c.07-1.58.05-3.16.07-4.75,1.06.29,2.1.59,3.16.87a3.94,3.94,0,0,1,2.6,1.8c.86,1.43,2.41,2,3.85,2.63,4.35,1.81,6.67,5.27,8,9.57a17.35,17.35,0,0,1-1.36,14.23c-3.67,6.45-9.33,10-16.5,11.45a26.24,26.24,0,0,1-5.8.37c-1.45,0-2.6-.39-2.13-2.25.2-.79-.37-1.11-.94-1.34-3-1.21-5-3.83-7.95-5.06a2.64,2.64,0,0,1-1.4-1.83,7.54,7.54,0,0,0-3.91-4.33c-2.44-1.33-3.59-4.84-2.14-7.17A8.91,8.91,0,0,0,26,108.26a1.55,1.55,0,0,1,.36-1.37c.72-.68,1.31-1.84,2.5-1.44S29.13,107,29.35,107.84Z"/><path class="cls-7" d="M39.12,112.54a108.85,108.85,0,0,1-.7-15.63q0-19.66,0-39.31a3.23,3.23,0,0,1,.2-1.79c1,.08.85.84.86,1.49.13,7.79.28,15.59.37,23.38,0,5.67,0,11.34,0,17,0,.57-.37,1.56.68,1.55s.82-.9.81-1.56c-.09-5.23.7-10.45.36-15.68-.39-6.08.56-12.1.51-18.17,0-3.13.4-6.38.46-9.52.19-9.78.68-19.54.85-29.31a23.29,23.29,0,0,1-.16-3.42,6.4,6.4,0,0,0-.63-4.87c1.48-.27,3-.16,4.41-.89.84-.44,1.11,0,1.13.75,0,.55,0,1.09,0,1.64,0,8.6.14,17.2-.08,25.79-.11,4.35,0,8.7-.08,13.06-.1,3.46,0,7-.06,10.48-.19,9,0,18-.15,27-.06,3.16,0,6.34,0,9.51-1.2.08-1.4-.76-1.43-1.65a8.37,8.37,0,0,1,.25-3.06c.18-.52,0-1.24-.65-1.28s-.72.69-.68,1.22.35,1,.25,1.4c-1.09,4.54-.7,9.42-3.23,13.61A3.8,3.8,0,0,1,39.12,112.54Z"/><path class="cls-8" d="M42.77,16.71a6.4,6.4,0,0,1,.63,4.87A23.29,23.29,0,0,0,43.56,25c-.17,9.77-.66,19.53-.85,29.31-.06,3.14-.48,6.39-.46,9.52,0,6.07-.9,12.09-.51,18.17.34,5.23-.45,10.45-.36,15.68,0,.66.09,1.56-.81,1.56s-.67-1-.68-1.55c0-5.67,0-11.34,0-17-.09-7.79-.24-15.59-.37-23.38,0-.65.15-1.41-.86-1.49.4-1.46-.15-2.89-.15-4.35.05-10.33,0-20.67,0-31,0-1.28.5-2.53.12-3.81a1.82,1.82,0,0,0,1.3,0A11.67,11.67,0,0,1,40,18.09c-.23,7.54.36,15.06.29,22.59,0,.49-.28,1.32.43,1.4s.56-.78.55-1.24c-.06-8,.58-15.9.29-23.86C41.92,16.62,42.36,16.74,42.77,16.71Z"/><path class="cls-7" d="M37.09,5.26c.29-2,2.68-3.83,5.33-4a9.55,9.55,0,0,1,7.33,2.94,8.72,8.72,0,0,1,0,4c-.63,1-1.91,1.51-1.87,2.91l-1.09.73-1.21-.09c.19-.64.73-1.47-.73-1-.71.23-1.54-.11-2.27.26C38.67,9.92,37.09,8.27,37.09,5.26Z"/><path class="cls-3" d="M41.58,17c.29,8-.35,15.91-.29,23.86,0,.46.31,1.33-.55,1.24s-.43-.91-.43-1.4c.07-7.53-.52-15-.29-22.59a11.67,11.67,0,0,0-.13-1.44L40,16h.15l.49.33c.13.41.44.38.77.33A1,1,0,0,0,41.58,17Z"/><path class="cls-5" d="M42.44,114.33c2.53-4.19,2.14-9.07,3.23-13.61.1-.42-.22-.93-.25-1.4s-.07-1.27.68-1.22.83.76.65,1.28a8.37,8.37,0,0,0-.25,3.06c0,.89.23,1.73,1.43,1.65-.57,2.17.14,4.41-.34,6.58-.08.37,0,1.18-.48.92-2.13-1.12-2.34.89-3,1.84A1.57,1.57,0,0,1,42.44,114.33Z"/><path class="cls-5" d="M45.63,11.79l1.21.09c-.22,1,.71,2.59-.75,3s-3.2,1.42-4.73-.11c-.11-1,.59-2-.09-2.92l1.35-.06C43.64,12.61,44.63,12,45.63,11.79Z"/><path class="cls-8" d="M31.47,115.11a13.49,13.49,0,0,0,9.45,6.24L41,122c-5.16-.13-8.94-2.67-10.33-6.93Z"/><path class="cls-8" d="M41.27,11.89c.68,1,0,1.95.09,2.92a4.67,4.67,0,0,1-2.53-1.1c0-1-.56-2-.3-3Z"/><path class="cls-7" d="M38.53,10.72c-.26,1,.29,2,.3,3l-2.21-1.82c.16-.88-.5-1.94.59-2.61Z"/><path class="cls-5" d="M47.93,11.15c0-1.4,1.24-2,1.87-2.91.63.07,1,.64.61,1C49.66,9.93,49.29,11.2,47.93,11.15Z"/><path class="cls-7" d="M31.47,115.11l-.82,0c-1.13-.92-.44-2.18-.63-3.28C31.26,112.56,31,114,31.47,115.11Z"/><path class="cls-7" d="M41,122l-.06-.64c.9.27,2.37-.92,2.61,1C42.68,122.24,41.74,122.76,41,122Z"/><path class="cls-7" d="M40,16l-.06.61a1.82,1.82,0,0,1-1.3,0l-.15,0-.14,0c0-.37,0-.74.05-1.1l.49-.11C39.25,15.55,39.75,15.53,40,16Z"/><path class="cls-5" d="M41.36,16.7c-.33.05-.64.08-.77-.33l.06-.46A.69.69,0,0,1,41.36,16.7Z"/><path class="cls-5" d="M38.84,15.43l-.49.11c-.18-.17-.29-.41,0-.53S38.75,15.17,38.84,15.43Z"/><path class="cls-7" d="M40.65,15.91l-.06.46L40.1,16Z"/><path class="cls-3" d="M38.53,10.72,37.21,9.28a4.9,4.9,0,0,1-.12-4c0,3,1.58,4.66,5.54,5.78,0,.26,0,.53,0,.79l-1.35.06Z"/><path class="cls-8" d="M42.62,11.83c0-.26,0-.53,0-.79.73-.37,1.56,0,2.27-.26,1.46-.46.92.37.73,1C44.63,12,43.64,12.61,42.62,11.83Z"/></g></g></svg>