<svg xmlns="http://www.w3.org/2000/svg" viewBox="0 0 112.75 222.28"><defs><style>.cls-1{fill:#121815;}.cls-2{fill:#abcf82;}.cls-3{fill:#d6e7c6;}.cls-4{fill:#18622d;}.cls-5{fill:#589645;}.cls-6{fill:#28282a;}.cls-7{fill:#434345;}.cls-8{fill:#848383;}.cls-9{fill:#dadada;}.cls-10{fill:#db2620;}.cls-11{fill:#efefef;}</style></defs><title>011Recurso 1Ing. Carlos</title><g id="Capa_2" data-name="Capa 2"><g id="Capa_1-2" data-name="Capa 1"><path class="cls-1" d="M16.72,85.72a3.35,3.35,0,0,1-.7-2.58c.42-20.16,0-40.35,1.33-60.49.81-12.2,6.73-18.91,18.76-20.93a116,116,0,0,1,40.55.13C88.29,4,94.39,11.33,95,23.23c.83,17.54.94,35.1,1.06,52.65,0,2.25.07,4.51.14,6.76a5.24,5.24,0,0,1-.9,3.44c-.64,2.79-.15,5.61-.29,8.41,0,.49-.24,1.11.39,1.45,1.72-.66,3.19-1.34,3-3.75-.12-1.44,1.11-2.5,2.44-3.13a39.19,39.19,0,0,1,5.28-1.93,3,3,0,0,1,3.37.58,3.84,3.84,0,0,1,.76,3.76,3.21,3.21,0,0,1-1.37,2.08c-2.72,1.56-5.36,3.17-8.77,3-1.78-.1-3.24,1.39-4.74,2.35-.49.54-.19,1.25-.38,1.85h-.66c-.12-.35.14-1-.51-.94-.49,0-.53.54-.4,1a3.46,3.46,0,0,1-.68,3.22c-.76.08-.87.61-1,1.26-.52,2.1-.26,4.23-.35,6.34l-.42,1.55-.57.33c-.89-5.14-1.08-10.39-2.38-15.48-.09,1.58.31,3.23,0,4.72-.55,2.67.2,5.17.36,7.75.18,2.9.41,5.79-.66,8.65a15.91,15.91,0,0,1-4.74,6.49A21.78,21.78,0,0,1,80,127.41a44.48,44.48,0,0,1-12.29,3.16,87.13,87.13,0,0,1-15.14.5c-4.92-.3-10,.45-14.69-1.83-1.14-.55-2.47-.68-3.63-1.18-6.37-2.74-11.09-7.77-10.32-15.69.35-3.57.54-7.16,1.07-10.71a4.34,4.34,0,0,0-.86-4C23.38,103,22.69,108,22,113.07c-1-.08-.77-.87-.84-1.49-.25-2.2-.52-4.39-.75-6.59-.06-.51-.13-1-.74-1.06-1.34-1-1.11-2.49-1.2-3.88-.19-.91-1.23-.62-1.67-1.17-1.26-.72-2.52-1.46-3.79-2.16-.31-.17-.72-.44-1-.36-3.11.86-5.48-1-8-2.21a4,4,0,0,1-2.37-4c.09-2.41,1.66-3.63,4-3.07a30.67,30.67,0,0,1,5.78,2.15c1.35.64,2.52,1.69,2.39,3.16-.21,2.33,1.33,2.89,2.89,3.61.39.43.95.19,1.4.36a1.25,1.25,0,0,0,1.5.74c.53-.19.23-.87.22-1.31,0-5.41.36-10.83-.9-16.17a11.82,11.82,0,0,1-.87,6c-.68.14-.54.8-.79,1.31C17,86.53,17.21,86,16.72,85.72Zm9.82,34,.36.36a.81.81,0,0,0,.37.73c.05.27.07.58.47.55a.15.15,0,0,0,.11-.11c0-.4-.26-.42-.54-.48a.82.82,0,0,0-.37-.73l-.36-.36a.78.78,0,0,0-.36-.73l-.18-.48a1,1,0,0,0-.13.1l.25.42Zm3.71,3.56c-.49-.52-.86-1.25-1.84-1.24a2.53,2.53,0,0,0,1.45,1.68C30.14,123.74,30.34,123.66,30.25,123.32ZM43,128.89a5.69,5.69,0,0,0,3.31-1.35c-1.35-.14-2.22.9-3.32.62-2.32-1.22-4.94-1.37-7.38-2.14l-4.55-2c-.17-.14-.36-.29-.53-.06,0,0,.12.25.2.38,1.48,1.13,2.9,2.37,4.94,2.34,2.3,1.17,4.84,1.24,7.33,1.51,0,.24,0,.49,0,.73l-.49.14.09.14ZM26.59,98.14c3,3.91,7.26,5.54,11.91,6.44,6.34,1.82,12.86,1.67,19.36,1.59.75,0,.93-.41.84-1.06,1.3,0,2.68.52,4-.4-1.73-.7-2.08-1.09-1.5-1.76,1-1.14,2.12-2.44,3.66-2.52A15.43,15.43,0,0,0,70,98.82c2.52-1,2.81-1,3.83,1.61.26-1.36-.18-2.7,1.28-3.38A19.94,19.94,0,0,0,80.41,93c3.29-3.15,4.5-6.94,4.67-11.24.08-2-.32-4-.21-6,.13-2.18.13-4.36.21-6.54,0-.49.25-1.32-.54-1.31s-.5.83-.52,1.33c-.14,3-.24,6.06-.39,9.09a6.58,6.58,0,0,1-.75,2.9,3.11,3.11,0,0,1-.33-2.11c0-7.66.44-15.3.67-22.95.32-10.46.31-20.93.42-31.4,0-3.42,0-6.83,0-10.24,0-.66-.17-1.38.48-1.86,1.52-1.11.94-2.45.4-3.76-.21-.5-.79-1-.76-1.42.15-2.23-1.43-2.69-3-3.19-6.84-2.16-14-2.18-21-2.7-5.88-.44-11.77.26-17.64.72a68.66,68.66,0,0,0-7.52,1.16c-.44.08-1.26-.05-1.27,1,0,1.79-1.26,1.76-2.38,1.23a2.58,2.58,0,0,0-2.72.18,17.16,17.16,0,0,0-7.91,9.62,2,2,0,0,0,.17,2c1.19,1.84.73,3.19-1.24,4.36a.71.71,0,0,0-.32.78c.16,1.77-.39,3.5-.36,5.25.12,6.44.85,12.85.72,19.3a1.09,1.09,0,0,0,0,.18c.9,7.28.39,14.65,1.35,21.95.52,4,0,8.14.46,12.19,0,.42-.09.89.33,1.17,1.3.86.88,2,.37,3A2,2,0,0,0,21.56,87c.29,1.48.49,3,.69,4.48.12.91-.2,2.35,1.39,2.6C24.59,95.48,25.19,97.1,26.59,98.14ZM94,88.28v-.75c1-.48,1-1,0-1.45-.3-1.06.17-2.3-.76-3.64-.15,1.86.09,3.34-.43,4.73A10.32,10.32,0,0,0,92,91.33c.08,1.73,1.21,3.29.78,5.1a.37.37,0,0,0,.42.45.66.66,0,0,0,.6-.59c.08-.72.11-1.45.16-2.17.46-.1.77-.25.26-.71V91.18C94.69,90.17,95.12,89.15,94,88.28ZM10.31,90.51a22.64,22.64,0,0,0-5-2.17c-.55-.2-1.39-.53-1.42.65-1,.22-1,.78-.42,1.41a3.65,3.65,0,0,1,.75,1c1,2.24,1.47,2.46,3.75,1.56a17.86,17.86,0,0,0,2.59-1.29C11.44,91.12,11.45,90.64,10.31,90.51Zm21.76,13.75c-.67-.41-1.34-.8-2-1.22-2.32-1.41-2.31-1.42-2.46,1.36,0,.48-.12,1-.16,1.44-.19,2.84-1.16,5.61-.86,8.47s1.13,5.7,4,7.25a8.38,8.38,0,0,0,5.07,3c3.58,1.06,7.18,2,11,1.67a49.17,49.17,0,0,0-6.3-1.47c-.73-.13-2.44.21-1.72-1.65,1.63-.83,3.14.27,4.71.29,5.53.78,11,1.65,16.67.83.67-.1,1.51,0,1.57.86s-.8.94-1.47.92c-2.5-.09-5,.58-7.46.37a2.65,2.65,0,0,0-2.09.7c3.68,0,7.15,0,10.62,0,.83,0,2,.16,2.12-1.1a2.84,2.84,0,0,1,1.93-2.36c.78-.38,1.33-2,2.34-.27a2.56,2.56,0,0,0,.66-.23A28,28,0,0,1,73,121.93c.33,0,.86.09.89-.29,0-.63-.55-.36-.9-.42l-2.9.33c.06-.17.08-.44.19-.49,2.69-1.08,5.33-.36,8,.28a.89.89,0,0,1,.54.65c0,2.14,1.22,1.08,2,.61a17.76,17.76,0,0,0,2.16-1.93,7,7,0,0,0,2.52-4.85c.33-3.72-.6-7.33-1-11-.31-3-.6-2.93-3.07-1.2a3.76,3.76,0,0,0-2.07.52,20.07,20.07,0,0,1-5.91,2.06c-5.65,1.72-11.51,1.58-17.28,1.58-6.68,0-13.42-.19-20-2ZM90.13,12a4.39,4.39,0,0,0,0,3,16.1,16.1,0,0,1,.79,2.79,62.38,62.38,0,0,1,.49,11.92c-.33,7.34-.28,14.68-.77,22-.35,5.27-.57,10.56-.48,15.85,0,2.53-.63,5.06-.58,7.58.07,3.45-1.09,6.88-.13,10.32.11.41-.21,1.17.56,1.09.56-.07.53-.72.56-1.22.36-6.16.86-12.32,1-18.5.17-5.15.35-10.29.74-15.44.43-5.56.39-11.15.72-16.72.25-4.43.17-8.89,0-13.34A16.46,16.46,0,0,0,90.13,12ZM79.84,102.56l-.17-.9c-2.13,1-4.59.57-6.58,1.74-2.21,1.28-4.7-.36-6.8,1C71.2,106.19,75.5,104.25,79.84,102.56ZM62.38,128.71H48.75A40,40,0,0,0,62.38,128.71Zm4.72-2.58a23.26,23.26,0,0,0,6.56-.72c.36-.07,1.17,0,1-.75a1.08,1.08,0,0,0-1.25-.85C71.24,124.35,69,124.63,67.1,126.13Zm8.63.56c-4,.54-7.92,1.55-12,1.87A35.75,35.75,0,0,0,75.73,126.69ZM89.35,11.39c0-1.3-.9-1.87-1.58-2.56-.18-.18-.42-.29-.63-.11a.53.53,0,0,0,0,.8A5.17,5.17,0,0,0,89.35,11.39ZM25.64,117.54c-.12-1.4-.25-2.85-.38-4.3C25.28,114.66,24.74,116.12,25.64,117.54ZM68.29,124c1.14-.15,2.34,0,3.28-.87C70.47,123.39,69.26,123.19,68.29,124ZM87,95.71c1.22-1.11,1.22-1.11,1-2.22A3.42,3.42,0,0,0,87,95.71ZM67.24,124.3c-1.4-.16-1.4-.16-2.47,1C65.7,124.76,66.64,125.05,67.24,124.3Zm-20.25,3a1.87,1.87,0,0,0,1.76-.86A1.71,1.71,0,0,0,47,127.27Zm2.77-1.1-.26-.07s0,.12,0,.12A.91.91,0,0,0,49.76,126.17Z"/><path class="cls-2" d="M47.71,181.2a4.47,4.47,0,0,1,.42,2.19c-.44.28-.49.53,0,.74l0,0a5.33,5.33,0,0,0,1.58,4.44c3.69,3.56,7.91,4.39,12.7,2.74a7.83,7.83,0,0,0,3.61-2.65c3.35-4.18,4.87-9.49,8.46-13.51a3.47,3.47,0,0,0,.45-1.35,9.86,9.86,0,0,1,4.64-6.46c4-2.26,8-4.56,10.83-8.38,1.26-1.7,3.06-2.87,3.86-5.06a10,10,0,0,1,2.92-4.55l.39,0q.81,2.58,1.64,5.14a27.42,27.42,0,0,1-4.34,20.23,37.08,37.08,0,0,1-14.67,12.88c-5.27,2.58-9.38,6.58-13.3,10.71-3.12,3.3-6.19,6.69-9.19,10.11-1,1.12-1.73,1-2.68,0-2.42-2.66-4.86-5.31-7.35-7.9-4.77-4.95-9.35-10.11-15.66-13.28a36.75,36.75,0,0,1-11.59-9.09c-6.31-7.42-8.71-15.86-6.47-25.46l2.34-5.87c.9-.6.79-2.19,2.22-2.28a59,59,0,0,0,4.36,7.95,3.17,3.17,0,0,0,1.37,4.05,6.73,6.73,0,0,1,2.06,2,13,13,0,0,0,5.92,5.13c.32.16.61.4.92.59a20.54,20.54,0,0,0,8,3.38c0,.24.14.53-.29.54-.3.36-.47.7.14.92.31,1.09.62,2.17.92,3.26-.26.16-.38.31,0,.4v0c-.06.35,0,.65.39.75l0,0a.38.38,0,0,0,.39.39l0,0c.19.77.53,1.34,1.48,1.12l0,0C43.9,177.86,46.45,179.16,47.71,181.2Z"/><path class="cls-3" d="M15.66,135.76a12.77,12.77,0,0,1,1.11,4.06c-.94.72-2,1.34-2.29,2.61a16,16,0,0,0-4,6.2,28.67,28.67,0,0,0-2.93,11.53,29.21,29.21,0,0,0,4.2,16.2,39.83,39.83,0,0,0,14,14.28c3.57,2.15,7.25,4.15,10.4,6.88a149.83,149.83,0,0,1,15.34,15.62c2.87,3.33,6.6,3.49,9.61.31,4.85-5.12,9.55-10.39,14.79-15.12a39.25,39.25,0,0,1,6.5-5,64.81,64.81,0,0,0,10.53-7.18c8.32-7.3,13.23-16.13,12.32-27.5a19.6,19.6,0,0,0-3.24-10.07,4.19,4.19,0,0,0-1.82-3.27c-.19-1.84-1.8-2.82-2.58-4.31.16-1.4,1.45-2.5,1.09-4l.39-.06,1.42,1.11c2.36,2.61,4.94,5.05,6.79,8.09,7.18,11.85,7.49,23.76.17,35.66-5.35,8.68-13.32,14.29-22.47,18.23a41.49,41.49,0,0,0-12.1,8,160.92,160.92,0,0,0-12.46,12.32c-2.22,2.59-5.39,2.6-7.86.16C48.65,216.65,44.88,212.75,41,209a43.14,43.14,0,0,0-13.37-9,50.81,50.81,0,0,1-15.92-10.48C5.74,183.69,1.45,176.88.3,168.54c-1.2-8.77,1.24-16.71,6.29-23.91a52.47,52.47,0,0,1,6.81-7.32l1.41-1.15Z"/><path class="cls-4" d="M82.9,125.62a15.91,15.91,0,0,0,4.74-6.49c1.07-2.86.84-5.75.66-8.65-.16-2.58-.91-5.08-.36-7.75.31-1.49-.09-3.14,0-4.72,1.3,5.09,1.49,10.34,2.38,15.48a30,30,0,0,1,.3,4.34c0,5.83-.18,11.65-.27,17.46-.06,4.3-1.61,7.9-3.53,11.43-2.72,5.05-7.58,7.31-12.73,9.09a1.19,1.19,0,0,1-1.72-.79,30.13,30.13,0,0,1-2.3-10.65c0-2.16-.33-4.31-.5-6.47l-.56,0c0,1.49.07,3,0,4.48s.39,3-.34,4.47c-1.74-1.41-3.52-.25-5.31-.22-4.62.06-9.24,1-13.9-.13-3.26-.78-5.08.55-6.55,3.49a9.59,9.59,0,0,0-.5,5.86c.23,1.63-.25,1.54-1.48,1.4s-2.64-1.13-4.1-.55c-7.12-1.9-11.8-6.56-14.72-13.16-2.74-6.22-3.43-12.88-4-19.54-.74-8.36-.9-16.76-1.26-25.14.44.55,1.48.26,1.67,1.17-.58.56-.32,1.28-.28,1.9.34,5.88.56,11.77,1.16,17.63.27,2.61-.23,5.32,1,8.32,0-1.58,0-2.67,0-3.76,0-1.52.08-3-.06-4.56-.11-1.23-1-2.33-.56-3.68a7.93,7.93,0,0,0,.18-4.15c-.49-2.62-.2-5.22-.26-7.82.61.09.68.55.74,1.06.23,2.2.5,4.39.75,6.59.07.62-.18,1.41.84,1.49a3.83,3.83,0,0,1,.48,1.9c.21,1.29-.57,2.34-.71,3.53-.31,2.71,1.15,4.9,2.08,7.24a2.86,2.86,0,0,1-1.2,3.8c-.47.25-.87.37-.84,1,.13,2.11.24,4.23.4,6.34a.88.88,0,0,0,.55.63c.5.07.51-.39.52-.75,0-.79,0-1.58,0-2.37,0-.34-.1-.82.39-.87s.55.39.73.7a3.72,3.72,0,0,1,.29,1.77A2.85,2.85,0,0,0,27,138.53c1.27.36.2-1.39,1.08-1.59a11.08,11.08,0,0,0,.83,4.58A4.11,4.11,0,0,0,30.29,146c.63.53,1.22,1.15,2,.59s-.11-1.12-.23-1.69c-.06-.23-.07-.47-.11-.71.69.21,1.37.47,2.07.61,2.23.42,4.36.35,5.86-1.71,1.28-1.75.41-3.3-.52-4.82a1.12,1.12,0,0,0,1.38-.58,1.37,1.37,0,0,1,1.68-.75c.84.15,1.12.76,1.33,1.53a10.23,10.23,0,0,1,.31,3.43,3.93,3.93,0,0,0,.55,2.45c.43.63,1.56,1.6,1.9.46,1-3.27,5.11-2.43,6.31-5.23,0-.08.35-.1.51-.05,2.23.65,4.44-.19,6.67-.1s5.12-.28,6.53-1.73c1.7-1.75,3.32-1.21,5.08-1.56a47.9,47.9,0,0,0,7.81-2.4c1.26-.48,3-1.16,3.18-2.51A37.1,37.1,0,0,1,84,125.61l.49-.16-.1-.14-.41.27Zm.71,15.7.37-.41,0,0c1.15-1.1,1.16-3.19,0-5.1l0,0-.38-.38,0,0c-.11-.4-.4-.45-.75-.39v0c-.26-.6-.83-.49-1.27-.43a15.35,15.35,0,0,0-8,3.17,6.2,6.2,0,0,0-1.89,2.65,2.6,2.6,0,0,0,.07,2.29c1.6,2.73,6.38,3.08,8.5.63.24,0,.37-.11.36-.36.69,0,1.54.42,1.87-.64l.71-.62.38-.56ZM58.8,142c-1.65.19-3.29-.33-4.95,0-1.35.25-2.2.73-1.34,2.26a5.35,5.35,0,0,0,5.44-.05,4.07,4.07,0,0,1,1-.29c.56-.15,1.56.37,1.52-.7C60.45,142.35,59.73,141.93,58.8,142Z"/><path class="cls-1" d="M36.81,156.72c1.46-.58,2.73.39,4.1.55s1.71.23,1.48-1.4a9.59,9.59,0,0,1,.5-5.86c1.47-2.94,3.29-4.27,6.55-3.49,4.66,1.13,9.28.19,13.9.13,1.79,0,3.57-1.19,5.31.22,1.72,3.19,1,6.65,1,10.11.81-.16,1.4-.66,2.16-.67s1.33.14,1.25,1.09c-.71.17-1.41.36-2.13.51-2.55.53-3.41,1.47-3.35,4.18,0,2.11-.49,4.24.69,6.33.91,1.6-.67,2.86-1.49,4-.54.79-1.57.46-2.49.12s-1.43.33-1.45,1.31a75.53,75.53,0,0,1-.3,8.37c-.42,3.21-2.81,5.14-6.47,5s-5.83-2.11-6.15-5.19-.2-6.2-.31-9.29c0-.3-.14-.4-.42-.27a.33.33,0,0,1-.27-.14c1.26-1.67.62-3.58.68-5.41l.39,0h0a2.69,2.69,0,0,0,1.37,2,9.48,9.48,0,0,0,9.69.1,4.37,4.37,0,0,0,2-2.93c.52-4.19,1.29-8.38.41-12.63a6.44,6.44,0,0,0-6.25-5.19c-1,0-2.07,0-3.1,0a4.43,4.43,0,0,0-4.73,3.22,15.81,15.81,0,0,0-.47,10.68l.64,3.67c-1.49,1.1-.51,2.63-.59,3.94-.06,1,0,1.87-.84,2.53a2,2,0,0,1-2.67.17c-1.27-1-2-3.55-1.11-4.53a2.81,2.81,0,0,0,.54-2.15,15.75,15.75,0,0,0-1-7c-.29-.64-.67-.55-1.11-.64A26.58,26.58,0,0,1,36.81,156.72Zm19,16.84c0-.5.29-1.18-.44-1.4-.47-.14-.58.3-.64.68-.9-.11-1.22-.88-1.71-1.49-.26-.33-.55-.91-1.14-.42s-.58,5.64.11,6.19c.12.09.36,0,.54,0a2.35,2.35,0,0,1,.45.3A1.65,1.65,0,0,0,55,178c1-.39.75-1.11.78-1.79s0-1.09,0-1.63Zm-9.15-25.38h-.5c-.29,3.71-.59,7.42-.87,11.13,0,.43.28.65.71.64a.61.61,0,0,0,.65-.7C46.65,155.55,46.65,151.87,46.65,148.18Zm-.58,19.28.61,0c0-1.78,0-3.56,0-5.34,0-.41,0-1-.56-.92s-.52.59-.49,1C45.75,163.94,45.92,165.7,46.07,167.46Z"/><path class="cls-5" d="M97.21,149.33a10,10,0,0,0-2.92,4.55c-.8,2.19-2.6,3.36-3.86,5.06-2.84,3.82-6.82,6.12-10.83,8.38A9.86,9.86,0,0,0,75,173.78a3.47,3.47,0,0,1-.45,1.35c-3.59,4-5.11,9.33-8.46,13.51a7.83,7.83,0,0,1-3.61,2.65c-4.79,1.65-9,.82-12.7-2.74a5.33,5.33,0,0,1-1.58-4.44c2.85,4.51,6.14,5.46,10.39,4.48,3.59-.83,5.67-3.62,6.09-8,.14-1.45.27-2.91.32-4.37,0-.76.3-1,1-1.14a6.35,6.35,0,0,0,4.69-8.5,4.52,4.52,0,0,1-.36-2.31,3.45,3.45,0,0,1,3-3.25c9.42-1.86,16.31-7,20.22-15.91.12-.28.2-.57.3-.86.78-.3.93.37,1.16.81C95.8,146.51,96.5,147.92,97.21,149.33Z"/><path class="cls-6" d="M73,157.4c.08-1-.47-1.09-1.25-1.09s-1.35.51-2.16.67c0-3.46.75-6.92-1-10.11.73-1.44.25-3,.34-4.47s0-3,0-4.48l.56,0c.17,2.16.46,4.31.5,6.47A30.13,30.13,0,0,0,72.37,155a1.19,1.19,0,0,0,1.72.79c5.15-1.78,10-4,12.73-9.09,1.92-3.53,3.47-7.13,3.53-11.43.09-5.81.26-11.63.27-17.46a30,30,0,0,0-.3-4.34l.57-.33c0,.91,1.17,1.27,1.12,2.22-.1,2,0,4-.17,6-.35,3.45-.4,6.94-.58,10.42l.53,0c1.77-10.29,1.11-20.8,2.49-31.12h.66l0,4.94c-.64,3.44-.33,6.94-.73,10.39-.2,9-.33,18-3.66,26.47C87.42,150.59,81.59,155.64,73,157.4Z"/><path class="cls-5" d="M41.14,167.67a20.54,20.54,0,0,1-8-3.38c-.31-.19-.6-.43-.92-.59a13,13,0,0,1-5.92-5.13,6.73,6.73,0,0,0-2.06-2,3.17,3.17,0,0,1-1.37-4.05c1.95,1.41,3.5,3.31,5.58,4.57A34.42,34.42,0,0,0,39,161.16c2.52.56,3.59,2.84,2.57,5.31C41.42,166.87,41.29,167.27,41.14,167.67Z"/><path class="cls-4" d="M18.11,96.38c-.45-.17-1,.07-1.4-.36a82.32,82.32,0,0,0,0-10.3c.49.23.27.81.55,1.22.25-.51.11-1.17.79-1.31C17.63,89.21,18.43,92.79,18.11,96.38Z"/><path class="cls-5" d="M47.71,181.2c-1.26-2-3.81-3.34-3.58-6.24.93.82,2.65-.35,3.18,1a11.52,11.52,0,0,1,.27,3.4C47.62,180,47.67,180.6,47.71,181.2Z"/><path class="cls-2" d="M97.54,141l-1.93-1.6c.28-1.29.57-2.58.85-3.88A2.88,2.88,0,0,1,98.63,137C99,138.53,97.7,139.63,97.54,141Z"/><path class="cls-7" d="M94.24,116c.4-3.45.09-7,.73-10.39l.13-.1C94.84,109.05,95.15,112.59,94.24,116Z"/><path class="cls-8" d="M48.09,172.34c.84-.66.78-1.55.84-2.53.08-1.31-.9-2.84.59-3.94,0,.22.06.43.08.64-.23.15-.36.31,0,.49-.06,1.83.58,3.74-.68,5.41Z"/><path class="cls-7" d="M95.36,95.94c-.63-.34-.41-1-.39-1.45.14-2.8-.35-5.62.29-8.41C95.3,89.37,95.33,92.65,95.36,95.94Z"/><path class="cls-8" d="M95.1,105.55l-.13.1,0-4.94c.19-.6-.11-1.31.38-1.85A33.27,33.27,0,0,1,95.1,105.55Z"/><path class="cls-5" d="M44.15,175c-.95.22-1.29-.35-1.48-1.12A1.9,1.9,0,0,1,44.15,175Z"/><path class="cls-5" d="M42.33,173.52c-.43-.1-.45-.4-.39-.75C42.29,172.91,42.53,173.1,42.33,173.52Z"/><path class="cls-5" d="M41,169.13c-.61-.22-.44-.56-.14-.92Z"/><path class="cls-5" d="M48.18,184.13c-.54-.21-.49-.46,0-.74C48.14,183.64,48.16,183.89,48.18,184.13Z"/><path class="cls-5" d="M42.69,173.88a.38.38,0,0,1-.39-.39C42.67,173.39,42.74,173.57,42.69,173.88Z"/><path class="cls-9" d="M25.1,1.19l-.17.15.16-.16Z"/><path class="cls-8" d="M49.16,172.55c.28-.13.41,0,.42.27Z"/><path class="cls-5" d="M42,172.79c-.42-.09-.3-.24,0-.4C41.93,172.52,41.94,172.65,42,172.79Z"/><path class="cls-6" d="M23.64,94.12c-1.59-.25-1.27-1.69-1.39-2.6-.2-1.5-.4-3-.69-4.48a2,2,0,0,1,.21-1.37c.51-1,.93-2.15-.37-3-.42-.28-.29-.75-.33-1.17-.48-4,.06-8.19-.46-12.19-1-7.3-.45-14.67-1.35-21.95a1.09,1.09,0,0,1,0-.18c.13-6.45-.6-12.86-.72-19.3,0-1.75.52-3.48.36-5.25a.71.71,0,0,1,.32-.78c2-1.17,2.43-2.52,1.24-4.36a2,2,0,0,1-.17-2,17.16,17.16,0,0,1,7.91-9.62,2.58,2.58,0,0,1,2.72-.18c1.12.53,2.37.56,2.38-1.23,0-1,.83-.87,1.27-1a68.66,68.66,0,0,1,7.52-1.16C48,1.87,53.84,1.17,59.72,1.61c7,.52,14.18.54,21,2.7,1.6.5,3.18,1,3,3.19,0,.45.55.92.76,1.42.54,1.31,1.12,2.65-.4,3.76-.65.48-.48,1.2-.48,1.86,0,3.41,0,6.82,0,10.24-.11,10.47-.1,20.94-.42,31.4-.23,7.65-.7,15.29-.67,22.95a3.11,3.11,0,0,0,.33,2.11,6.58,6.58,0,0,0,.75-2.9c.15-3,.25-6.06.39-9.09,0-.5-.25-1.32.52-1.33s.56.82.54,1.31c-.08,2.18-.08,4.36-.21,6.54-.11,1.94.29,4,.21,6-.17,4.3-1.38,8.09-4.67,11.24a19.94,19.94,0,0,1-5.26,4.06c-1.46.68-1,2-1.28,3.38-1-2.57-1.31-2.63-3.83-1.61a15.43,15.43,0,0,1-5.18,1.61c-1.54.08-2.67,1.38-3.66,2.52-.58.67-.23,1.06,1.5,1.76-1.32.92-2.7.37-4,.4a98.64,98.64,0,0,1-14.16-.63,27.58,27.58,0,0,0-6.09-.66c-1.27-.53-2.79-.23-3.92-1.2,2.53,0,2.34-1.77,2.32-3.5A10.65,10.65,0,0,1,37.24,97l.67-.14c.14.17.26.49.43.51a65.21,65.21,0,0,0,6.66.74c4.57.12,9.14,0,13.71,0A4.32,4.32,0,0,0,60,98c.49-.17,1.24-.28,1.13-1s-.81-.37-1.25-.38c-4.25-.1-8.51.13-12.76-.34-2.58-.29-3.12-.59-3.32-3.15a16.85,16.85,0,0,1,0-2c0-.54.27-1,.83-1,1.51,0,1.42-1.11,1.74-2.08.47-1.45,0-3,.82-4.43a9.47,9.47,0,0,0,1.28-6.41c-.23-1.21.25-1.63,1-2.36,1.36-1.28,3.23-2.17,3.12-4.71-.17-3.69-.34-7.4-.39-11.1-.12-8.59,0-17.19-.09-25.78,0-1.79-.26-3.46,1.19-4.82l.91.43c-1.33,1-.13,2.09-.08,3.12a.69.69,0,0,0,1,.53,9.44,9.44,0,0,1,3.14-.71,1.48,1.48,0,0,0,1.17-1.79c-.14-1.21-1-.29-1.53-.39-1.18-.21-2.64.85-3.54-.72A7.64,7.64,0,0,0,60.17,28c.12.41.27.82.78.84a.55.55,0,0,0,.6-.54c0-.51-.37-.69-.77-.84,1.79-2.78,1.79-5.69,0-7.73s-4.72-2.42-7.68-1.05c-1.2-1.28-2.52-1.13-3.89-.32-.36-.53-1-.22-1.43-.39.22-1,.49-2,.67-3a3.1,3.1,0,0,0-2.15-3.62c-2.19-.78-4.47-1.47-5.08-4.22-.22-1-.94-1.25-1.93-1.22a24,24,0,0,0-8.75,2.24,5.42,5.42,0,0,0-3.23,3.69c-1.24,2-1.16,4.26-1.3,6.48-1.94.69-1.5,2.6-1.57,3.86-.35,6.35-.34,12.71-.32,19.06,0,3.87.06,7.77.23,11.65,0,.59-.2,1.24.38,1.71.09,1,.25,1.94.26,2.9.06,7.56.51,15.1.75,22.65.16,5.1,1.14,9.71,4.68,13.54a1.69,1.69,0,0,0-.81,2.58,8.69,8.69,0,0,1,.6,3.87c-1.47-.44-2-2.24-3.67-2.42-.44-2.06-2.06-3.46-2.79-5.48C23,93.06,23.75,93.57,23.64,94.12ZM67,18.07c-1,0-2,0-2.92,0s-1.66-.26-1.66,1.17.91,1.21,1.68,1.14c1.29-.13,1.67.38,1.61,1.64-.09,1.93.06,3.88,0,5.82,0,1.05.43,1.21,1.3,1.17s1.58.13,1.53-1.14c-.08-1.81.08-3.64,0-5.46-.1-1.47.13-2.39,1.89-2.06.94.17,1.23-.22,1.25-1.2s-.55-1.12-1.36-1.1C69.19,18.09,68.1,18.06,67,18.07Zm8.66,5.61h0c0-1.51-.06-3,0-4.54.07-1.32-.83-1-1.56-1.08-.92-.1-1.27.15-1.24,1.18.08,2.72.07,5.45,0,8.17,0,1.11.18,1.57,1.46,1.62,1.53.06,1.3-.81,1.29-1.71Z"/><path class="cls-5" d="M84,125.61a37.1,37.1,0,0,0-1.38,5.66c-.19,1.35-1.92,2-3.18,2.51a47.9,47.9,0,0,1-7.81,2.4c-1.76.35-3.38-.19-5.08,1.56-1.41,1.45-4.22,1.81-6.53,1.73s-4.44.75-6.67.1c-.16,0-.48,0-.51.05-1.2,2.8-5.33,2-6.31,5.23-.34,1.14-1.47.17-1.9-.46a3.93,3.93,0,0,1-.55-2.45,10.23,10.23,0,0,0-.31-3.43c-.21-.77-.49-1.38-1.33-1.53a1.37,1.37,0,0,0-1.68.75,1.12,1.12,0,0,1-1.38.58A16.55,16.55,0,0,0,32.65,135c-1.22-.37-2.39-.87-3.58,0-.47,0-.75.26-.72.77l0,.41,0,0c-.43.1-.41.41-.35.75h0c-.88.2.19,1.95-1.08,1.59A2.85,2.85,0,0,1,24.71,136a3.72,3.72,0,0,0-.29-1.77c-.18-.31-.32-.74-.73-.7s-.39.53-.39.87c0,.79,0,1.58,0,2.37,0,.36,0,.82-.52.75a.88.88,0,0,1-.55-.63c-.16-2.11-.27-4.23-.4-6.34,0-.6.37-.72.84-1a2.86,2.86,0,0,0,1.2-3.8c-.93-2.34-2.39-4.53-2.08-7.24.14-1.19.92-2.24.71-3.53a3.83,3.83,0,0,0-.48-1.9c.69-5,1.38-10.07,2.1-15.4a4.34,4.34,0,0,1,.86,4c-.53,3.55-.72,7.14-1.07,10.71-.77,7.92,3.95,12.95,10.32,15.69,1.16.5,2.49.63,3.63,1.18,4.7,2.28,9.77,1.53,14.69,1.83a87.13,87.13,0,0,0,15.14-.5A44.48,44.48,0,0,0,80,127.41a21.78,21.78,0,0,0,2.94-1.79l1.1,0Zm-55.37.45.35.39c.1.29.23.56.6.53.08,0,.22-.13.21-.2,0-.38-.31-.47-.6-.56l-.39-.32-.38-.36c-.09-.15-.18-.32-.35-.09,0,0,.13.15.2.23Zm-1.72-2-.21-.15.18.19.13.49.22-.14Zm19,14.29a.8.8,0,0,0,1.2.1l1-.07a20.42,20.42,0,0,0,7.83,0,19.93,19.93,0,0,0-7.86-.71c-2.21.09-3.07-1.68-4.21-3.14A4,4,0,0,0,45.93,138.4ZM36,130.07c.26.26.74.48.85.18s-.45-.22-.68-.39l-6-3c0,1.3-.07,2.33,0,3.35.11,1.34-.6,1-1.3.72-.12-.11-.24-.27-.38-.05,0,0,.11.17.17.26,1.73,2.15,4.24,2.76,6.73,3.56a10.25,10.25,0,0,1,0-2.1C35.6,131.78,34.76,130.67,36,130.07Zm2,.28-.23.2c.09,0,.19.14.29.14s.37,0,.26-.24C38.29,130.39,38.12,130.38,38,130.35Z"/><path class="cls-7" d="M70.11,121.55l2.9-.33c0,.24,0,.47,0,.71a28,28,0,0,0-4.77,1.13,2.56,2.56,0,0,1-.66.23c-1-1.68-1.56-.11-2.34.27a2.84,2.84,0,0,0-1.93,2.36C63.18,127.18,62,127,61.2,127c-3.47,0-6.94,0-10.62,0a2.65,2.65,0,0,1,2.09-.7c2.51.21,5-.46,7.46-.37.67,0,1.53,0,1.47-.92s-.9-1-1.57-.86c-5.62.82-11.14,0-16.67-.83-1.57-2.12-1.06-4.55-.81-6.85.14-1.35-.2-1.6-1.36-1.57a3.21,3.21,0,0,0-2.62,1.42c-1,1.41-1,5.17.08,6.71-.72,1.86,1,1.52,1.72,1.65a49.17,49.17,0,0,1,6.3,1.47c-3.81.38-7.41-.61-11-1.67,0-2.93.07-5.87.1-8.8A11.54,11.54,0,0,0,36,111.3c0-1,0-1.94.08-2.91l0-.75.08-1.82c6.55,1.78,13.29,2,20,2,5.77,0,11.63.14,17.28-1.58,0,.85,0,1.71,0,2.57-1.74-.23-3.34.64-5,.7-5.26.18-10.5.8-15.81.49-3.64-.22-7.26-.56-10.87-1-2.94-.35-3.26-.21-3.39,2.73,0,.73,0,1.46,0,2.19,0,.52.21.75.81.56,4.76-1.52,9.68-1.29,14.58-1.24.23,1,1.05.63,1.64.65,4.23.19,8.47-.25,12.7.35,2.19.31,2.33.26,2.09,2.46a5.23,5.23,0,0,1-1.2,3,3.33,3.33,0,0,0-1,1.9c.49.63,1,.44,1.5,0Z"/><path class="cls-6" d="M73.35,108.78c0-.86,0-1.72,0-2.57a20.07,20.07,0,0,0,5.91-2.06,3.76,3.76,0,0,1,2.07-.52,20.85,20.85,0,0,1,.8,5.39c.19,3.89.48,7.76.74,11.65a17.76,17.76,0,0,1-2.16,1.93c-.73.47-1.9,1.53-2-.61a.89.89,0,0,0-.54-.65c-2.63-.64-5.27-1.36-8-.28-.11,0-.13.32-.19.49l-.71,0c-.48-.69-1,.11-1.5,0a3.33,3.33,0,0,1,1-1.9,5.23,5.23,0,0,0,1.2-3c.24-2.2.1-2.15-2.09-2.46-4.23-.6-8.47-.16-12.7-.35-.59,0-1.41.35-1.64-.65,4.9,0,9.81-.2,14.71.17C73.44,113.77,73.44,113.75,73.35,108.78Z"/><path class="cls-6" d="M90.13,12a16.46,16.46,0,0,1,3,9.36c.16,4.45.24,8.91,0,13.34-.33,5.57-.29,11.16-.72,16.72-.39,5.15-.57,10.29-.74,15.44-.19,6.18-.69,12.34-1,18.5,0,.5,0,1.15-.56,1.22-.77.08-.45-.68-.56-1.09-1-3.44.2-6.87.13-10.32,0-2.52.62-5.05.58-7.58-.09-5.29.13-10.58.48-15.85.49-7.34.44-14.68.77-22a62.38,62.38,0,0,0-.49-11.92A16.1,16.1,0,0,0,90.15,15,4.39,4.39,0,0,1,90.13,12Z"/><path class="cls-7" d="M30.61,121.56c-2.9-1.55-3.71-4.32-4-7.25s.67-5.63.86-8.47c0-.48.14-1,.16-1.44.15-2.78.14-2.77,2.46-1.36.67.42,1.34.81,2,1.22l-.73,1.23-.07,1.39a11.71,11.71,0,0,0-.39,3.43C30.78,114.06,30.7,117.81,30.61,121.56Z"/><path class="cls-9" d="M30.61,121.56c.09-3.75.17-7.5.27-11.25a11.71,11.71,0,0,1,.39-3.43c.05.74.1,1.48.15,2.4.54-.91-.08-1.86.7-2.66.54,1.22-.13,2.23-.12,3.27,0,3.17-.14,6.35-.27,9.53,0,1,.26,1,1.05.69,1.38-.54,1.46-1.8,1.41-2.87-.11-2.62.6-5.19.4-7.8-.11-1.36.53-1.35,1.49-1L36,111.3a12.17,12.17,0,0,0-.22,4.42c0,2.93-.07,5.87-.1,8.8A8.38,8.38,0,0,1,30.61,121.56Z"/><path class="cls-8" d="M82.91,120.67c-.26-3.89-.55-7.76-.74-11.65a20.85,20.85,0,0,0-.8-5.39c2.47-1.73,2.76-1.76,3.07,1.2.39,3.66,1.32,7.27,1,11A7,7,0,0,1,82.91,120.67Z"/><path class="cls-8" d="M38.65,123.07c-1-1.54-1.12-5.3-.08-6.71a3.21,3.21,0,0,1,2.62-1.42c1.16,0,1.5.22,1.36,1.57-.25,2.3-.76,4.73.81,6.85C41.79,123.34,40.28,122.24,38.65,123.07Z"/><path class="cls-4" d="M94.28,100.72c-1.38,10.32-.72,20.83-2.49,31.12l-.53,0c.18-3.48.23-7,.58-10.42.21-2,.07-4,.17-6,0-.95-1.09-1.31-1.12-2.22l.42-1.54c.79,0,1-.47,1.08-1.15a26.38,26.38,0,0,0,.3-6.46,3.46,3.46,0,0,0,.68-3.22c-.13-.47-.09-1,.4-1C94.42,99.71,94.16,100.37,94.28,100.72Z"/><path class="cls-5" d="M18.11,96.38c.32-3.59-.48-7.17-.05-10.75a11.82,11.82,0,0,0,.87-6c1.26,5.34.86,10.76.9,16.17,0,.44.31,1.12-.22,1.31A1.25,1.25,0,0,1,18.11,96.38Z"/><path class="cls-7" d="M38.45,103.82a27.58,27.58,0,0,1,6.09.66,98.64,98.64,0,0,0,14.16.63c.09.65-.09,1-.84,1.06-6.5.08-13,.23-19.36-1.59C38.48,104.33,38.47,104.07,38.45,103.82Z"/><path class="cls-5" d="M19.67,103.93c.06,2.6-.23,5.2.26,7.82a7.93,7.93,0,0,1-.18,4.15c-.49,1.35.45,2.45.56,3.68.14,1.51.06,3,.06,4.56,0,1.09,0,2.18,0,3.76-1.25-3-.75-5.71-1-8.32-.6-5.86-.82-11.75-1.16-17.63,0-.62-.3-1.34.28-1.9C18.56,101.44,18.33,102.93,19.67,103.93Z"/><path class="cls-6" d="M10.31,90.51c1.14.13,1.13.61.28,1.14A17.86,17.86,0,0,1,8,92.94c-2.28.9-2.8.68-3.75-1.56a3.65,3.65,0,0,0-.75-1c-.55-.63-.56-1.19.42-1.41a15.18,15.18,0,0,1,3.31.91C8.24,90.18,9.15,91,10.31,90.51Z"/><path class="cls-4" d="M94.26,91.18v2.23a.53.53,0,0,0-.26.71c0,.72-.08,1.45-.16,2.17a.66.66,0,0,1-.6.59.37.37,0,0,1-.42-.45c.43-1.81-.7-3.37-.78-5.1a10.32,10.32,0,0,1,.76-4.16c.52-1.39.28-2.87.43-4.73.93,1.34.46,2.58.76,3.64v1.45c0,.25,0,.5,0,.75C94,89.25,93.6,90.26,94.26,91.18Z"/><path class="cls-6" d="M79.84,102.56c-4.34,1.69-8.64,3.63-13.55,1.83,2.1-1.35,4.59.29,6.8-1,2-1.17,4.45-.78,6.58-1.74Z"/><path class="cls-8" d="M38.45,103.82c0,.25,0,.51,0,.76-4.65-.9-8.9-2.53-11.91-6.44,0-.14,0-.27,0-.41,1.64.18,2.2,2,3.67,2.42a15.28,15.28,0,0,0,4.31,2.47C35.66,103.59,37.18,103.29,38.45,103.82Z"/><path class="cls-6" d="M62.38,128.71a40,40,0,0,1-13.63,0Z"/><path class="cls-6" d="M67.1,126.13c1.85-1.5,4.14-1.78,6.31-2.32a1.08,1.08,0,0,1,1.25.85c.17.75-.64.68-1,.75A23.26,23.26,0,0,1,67.1,126.13Z"/><path class="cls-6" d="M92.69,104a26.38,26.38,0,0,1-.3,6.46c-.11.68-.29,1.17-1.08,1.15.09-2.12-.17-4.25.35-6.35C91.82,104.62,91.93,104.09,92.69,104Z"/><path class="cls-8" d="M31.34,105.49l.73-1.23,4.07,1.55c0,.61,0,1.22-.08,1.83Z"/><path class="cls-6" d="M75.73,126.69a35.75,35.75,0,0,1-12,1.87C67.81,128.24,71.74,127.23,75.73,126.69Z"/><path class="cls-8" d="M10.31,90.51c-1.16.5-2.07-.33-3.08-.61A15.18,15.18,0,0,0,3.92,89c0-1.18.87-.85,1.42-.65A22.64,22.64,0,0,1,10.31,90.51Z"/><path class="cls-7" d="M43,128.15c-2.49-.27-5-.34-7.33-1.51l-.06-.62c2.44.77,5.06.92,7.38,2.14Z"/><path class="cls-7" d="M26.55,97.73c0,.14,0,.27,0,.41-1.4-1-2-2.66-2.95-4,.11-.55-.67-1.06.12-1.87C24.49,94.27,26.11,95.67,26.55,97.73Z"/><path class="cls-8" d="M35.64,126l.06.62c-2,0-3.46-1.21-4.94-2.34l.33-.32Z"/><path class="cls-6" d="M89.35,11.39a5.17,5.17,0,0,1-2.22-1.87.53.53,0,0,1,0-.8c.21-.18.45-.07.63.11C88.45,9.52,89.32,10.09,89.35,11.39Z"/><path class="cls-6" d="M94.26,91.18c-.66-.92-.28-1.93-.26-2.9C95.12,89.15,94.69,90.17,94.26,91.18Z"/><path class="cls-7" d="M43,128.16c1.1.28,2-.76,3.32-.62A5.69,5.69,0,0,1,43,128.89h0v-.73Z"/><path class="cls-6" d="M25.64,117.54c-.9-1.42-.36-2.88-.38-4.3C25.39,114.69,25.52,116.14,25.64,117.54Z"/><path class="cls-6" d="M68.29,124c1-.79,2.18-.59,3.28-.87C70.63,124,69.43,123.83,68.29,124Z"/><path class="cls-6" d="M87,95.71a3.42,3.42,0,0,1,1-2.22C88.22,94.6,88.22,94.6,87,95.71Z"/><path class="cls-6" d="M67.24,124.3c-.6.75-1.54.46-2.47,1C65.84,124.14,65.84,124.14,67.24,124.3Z"/><path class="cls-7" d="M29.86,123.76a2.53,2.53,0,0,1-1.45-1.68c1,0,1.35.72,1.84,1.24Z"/><path class="cls-7" d="M47,127.27a1.71,1.71,0,0,1,1.76-.86A1.87,1.87,0,0,1,47,127.27Z"/><path class="cls-6" d="M94,87.53V86.08C95,86.56,95,87.05,94,87.53Z"/><path class="cls-6" d="M73,121.93c0-.24,0-.47,0-.71.35.06.95-.21.9.42C73.88,122,73.35,121.9,73,121.93Z"/><path class="cls-6" d="M94,94.12a.53.53,0,0,1,.26-.71C94.77,93.87,94.46,94,94,94.12Z"/><path class="cls-6" d="M27.31,120.81c.28.06.58.08.54.48a.15.15,0,0,1-.11.11c-.4,0-.42-.28-.47-.55Z"/><path class="cls-7" d="M49.76,126.17a.91.91,0,0,1-.22,0s0-.08,0-.12Z"/><path class="cls-7" d="M43,128.89l-.41.27-.09-.14.49-.14Z"/><path class="cls-6" d="M27.27,120.85a.81.81,0,0,1-.37-.73l0,0a.82.82,0,0,1,.37.73Z"/><path class="cls-6" d="M26.16,119l-.25-.42a1,1,0,0,1,.13-.1l.18.48Z"/><path class="cls-6" d="M26.54,119.76l-.38-.73.06,0a.78.78,0,0,1,.36.73Z"/><path class="cls-6" d="M26.9,120.12l-.36-.36,0,0,.36.36Z"/><path class="cls-8" d="M30.76,124.3c-.08-.13-.24-.33-.2-.38.17-.23.36-.08.53.06Z"/><path class="cls-8" d="M29.86,123.76l.39-.44C30.34,123.66,30.14,123.74,29.86,123.76Z"/><path class="cls-1" d="M82.54,142.48c-.33,1.06-1.18.61-1.87.64l0,0a3.5,3.5,0,0,0,.15-3.57c-.73-1.23-2.06-1.33-3.38-1a3.74,3.74,0,0,0-3.27,1.43l-.35.33c-.21,0-.38.07-.31.34l-.31,1c-.36,1.49.43,2.24,1.72,2.68a3.58,3.58,0,0,0,3.32.06,2.18,2.18,0,0,0,1.45-.64l.61-.2,0,0c-2.12,2.45-6.9,2.1-8.5-.63a2.6,2.6,0,0,1-.07-2.29,6.2,6.2,0,0,1,1.89-2.65,15.35,15.35,0,0,1,8-3.17c.44-.06,1-.17,1.27.43-.87.11-2.07-.23-2.49.62-.5,1,.76,1.46,1.29,2.12a3.32,3.32,0,0,1,.55,3.85C82.14,142,81.19,142.79,82.54,142.48Z"/><path class="cls-6" d="M29.07,135c1.19-.88,2.36-.38,3.58,0a16.55,16.55,0,0,1,6.75,3.28c.93,1.52,1.8,3.07.52,4.82-1.5,2.06-3.63,2.13-5.86,1.71-.7-.14-1.38-.4-2.07-.61-.24-.21-.51-.42-.25-.8.58-.25.86.54,1.41.4a4.16,4.16,0,0,0,4.38,0c1.71-1.31,1.89-2.77.45-4.2a4.49,4.49,0,0,0-3-1.46,3.08,3.08,0,0,0-3.3.93c-1.89,1.48-.61,2.9.09,4.34-1,.41-1.4-.34-1.8-1a5.15,5.15,0,0,1,1.5-5.54c.29-.29.67-.65.4-1.11a1.28,1.28,0,0,0-1.25-.61,9.79,9.79,0,0,0-1.39.36C29.16,135.36,29.11,135.2,29.07,135Zm5.91,2.2c-1.48-1.16-1.48-1.16-2.38-.14C33.3,137.47,34,137,35,137.24Z"/><path class="cls-10" d="M82.54,142.48c-1.35.31-.4-.52-.3-.72a3.32,3.32,0,0,0-.55-3.85c-.53-.66-1.79-1.11-1.29-2.12.42-.85,1.62-.51,2.49-.62v0a.51.51,0,0,0,.75.39l0,0c-.07.31,0,.48.38.38l0,0a16.46,16.46,0,0,1,0,5.1l0,0c-.33,0-.38.15-.37.41l0,0a.48.48,0,0,0-.38.56Z"/><path class="cls-10" d="M29.21,135.52a9.79,9.79,0,0,1,1.39-.36,1.28,1.28,0,0,1,1.25.61c.27.46-.11.82-.4,1.11a5.15,5.15,0,0,0-1.5,5.54l-1.08-.9a11.08,11.08,0,0,1-.83-4.58h0c.38-.13.4-.42.35-.75l0,0,.39-.32v0l.37-.34Z"/><path class="cls-5" d="M58.8,142c.93-.09,1.65.33,1.68,1.21,0,1.07-1,.55-1.52.7a4.07,4.07,0,0,0-1,.29,5.35,5.35,0,0,1-5.44.05c.1-.84.77-.91,1.41-1.17C55.5,142.46,57.28,142.82,58.8,142Z"/><path class="cls-5" d="M28.87,141.52l1.08.9c.4.68.77,1.43,1.8,1h0c-.26.38,0,.59.25.8,0,.24.05.48.11.71.12.57,1.13,1.07.23,1.69s-1.41-.06-2-.59A4.11,4.11,0,0,1,28.87,141.52Z"/><path class="cls-2" d="M58.8,142c-1.52.8-3.3.44-4.88,1.08-.64.26-1.31.33-1.41,1.17-.86-1.53,0-2,1.34-2.26C55.51,141.69,57.15,142.21,58.8,142Z"/><path class="cls-1" d="M83.94,140.94a16.46,16.46,0,0,0,0-5.1C85.1,137.75,85.09,139.84,83.94,140.94Z"/><path class="cls-1" d="M83.63,135.51a.51.51,0,0,1-.75-.39C83.23,135.06,83.52,135.11,83.63,135.51Z"/><path class="cls-5" d="M84,125.58l.41-.27.1.14-.49.16Z"/><path class="cls-1" d="M84,135.87c-.36.1-.45-.07-.38-.38Z"/><path class="cls-1" d="M80.67,143.12c0,.25-.12.36-.36.36l0,0,.37-.36Z"/><path class="cls-1" d="M83.25,141.86a.48.48,0,0,1,.38-.56C83.5,141.49,83.38,141.68,83.25,141.86Z"/><path class="cls-1" d="M83.61,141.32c0-.26,0-.46.37-.41Z"/><path class="cls-5" d="M49.6,166.51c0-.21-.05-.42-.08-.64-.21-1.22-.43-2.44-.64-3.67a.83.83,0,0,0,.68-1.1c-.59-2.67-.78-5.3.75-7.77,0,0,0-.12,0-.18.39-3,2-3.93,4.82-2.86a6,6,0,0,1,2,1.24,7.48,7.48,0,0,0,2.55,2c1.37.37,1.31,1.15,1.3,2.15a93.84,93.84,0,0,1-.36,10.73c-.29,2.28-.53,2.86-2.84,3.15a15.54,15.54,0,0,1-2.36,0,.91.91,0,0,0-1.21-.6l-.06,0a22.85,22.85,0,0,0,2-9.84c0-3.1-1-4-4.1-3.66l0,0c0-.52.25-1.27-.49-1.28-.54,0-.49.71-.49,1.19a.74.74,0,0,0,.4.75l-.16,8.73a1.16,1.16,0,0,0,.13,1.49l-.13,1.55c-.63,0-.72-.87-1.37-.8h0Z"/><path class="cls-4" d="M50,167c.65-.07.74.83,1.37.8a5.66,5.66,0,0,0,2.23,1.67l1.87.07a15.54,15.54,0,0,0,2.36,0c2.31-.29,2.55-.87,2.84-3.15A93.84,93.84,0,0,0,61,155.66c0-1,.07-1.78-1.3-2.15a7.48,7.48,0,0,1-2.55-2,6,6,0,0,0-2-1.24c-2.84-1.07-4.43-.11-4.82,2.86,0,.06,0,.14,0,.18-1.53,2.47-1.34,5.1-.75,7.77a.83.83,0,0,1-.68,1.1,15.81,15.81,0,0,1,.47-10.68,4.43,4.43,0,0,1,4.73-3.22c1,.07,2.06,0,3.1,0a6.44,6.44,0,0,1,6.25,5.19c.88,4.25.11,8.44-.41,12.63a4.37,4.37,0,0,1-2,2.93,9.48,9.48,0,0,1-9.69-.1A2.69,2.69,0,0,1,50,167Z"/><path class="cls-7" d="M52.52,177.16c-.18,0-.42.05-.54,0-.69-.55-.78-5.64-.11-6.19s.88.09,1.14.42c.49.61.81,1.38,1.71,1.49,0,.71.58.68,1.08.72v1c-1.11.68-1.83.06-2.51-.73l-.35-.36-.21-.15.15.2.36.37C53.63,175.14,52.33,176,52.52,177.16Z"/><path class="cls-7" d="M46.65,148.18c0,3.69,0,7.37,0,11.06a.61.61,0,0,1-.65.7c-.43,0-.74-.21-.71-.64.28-3.71.58-7.42.87-11.13Z"/><path class="cls-6" d="M52.52,177.16c-.19-1.17,1.11-2,.72-3.24l0-.06c.68.79,1.4,1.41,2.51.73,0,.54.05,1.09,0,1.63s.23,1.4-.78,1.79a1.65,1.65,0,0,1-2.07-.55A2.35,2.35,0,0,0,52.52,177.16Z"/><path class="cls-7" d="M46.07,167.46c-.15-1.76-.32-3.52-.45-5.29,0-.4-.08-1,.49-1s.56.51.56.92c0,1.78,0,3.56,0,5.34Z"/><path class="cls-6" d="M55.8,173.56c-.5,0-1,0-1.08-.72.06-.38.17-.82.64-.68C56.09,172.38,55.75,173.06,55.8,173.56Z"/><path class="cls-4" d="M49.6,166.51,50,167l-.39,0C49.24,166.82,49.37,166.66,49.6,166.51Z"/><path class="cls-7" d="M27.32,11.85a5.42,5.42,0,0,1,3.23-3.69A24,24,0,0,1,39.3,5.92c1,0,1.71.25,1.93,1.22.61,2.75,2.89,3.44,5.08,4.22A3.1,3.1,0,0,1,48.46,15c-.18,1-.45,2-.67,3-1.51-.2-2.29.54-2.78,1.92s-1.24,2.83-2,4.53l-2.56-5.58c-.65-1.43-1.92-.67-2.91-.74s-.68.93-.69,1.49c-.05,2.74,0,5.49-.06,8.23,0,1.1.53,1.13,1.34,1.14s1.37,0,1.36-1.13a16.16,16.16,0,0,1,.29-4.74c.64,1.34,1.08,2.32,1.59,3.27.37.69.43,1.64,1.66,1.6s1.21-1,1.61-1.7c.62-1,.78-2.32,1.65-3.41.35,2.17-.22,4.2.4,6.16.1.78.71.67,1.24.7s1-.14,1.26.44a.87.87,0,0,0,1.46.41A1.29,1.29,0,0,0,51,28.93a2.07,2.07,0,0,0-1.73-1.4V18.38c1.37-.81,2.69-1,3.89.32-3.49,3.1-3.41,6.76.2,9.78-1.45,1.36-1.21,3-1.19,4.82.11,8.59,0,17.19.09,25.78,0,3.7.22,7.41.39,11.1.11,2.54-1.76,3.43-3.12,4.71-.78.73-1.26,1.15-1,2.36a9.47,9.47,0,0,1-1.28,6.41c-.78,1.4-.35,3-.82,4.43-.32,1-.23,2.1-1.74,2.08-.56,0-.81.48-.83,1a16.85,16.85,0,0,0,0,2c.2,2.56.74,2.86,3.32,3.15,4.25.47,8.51.24,12.76.34.44,0,1.14-.26,1.25.38s-.64.79-1.13,1a4.32,4.32,0,0,1-1.26.12c-4.57,0-9.14.08-13.71,0a65.21,65.21,0,0,1-6.66-.74c-.17,0-.29-.34-.43-.51.13-.74-.23-1.11-.9-1.35C31.1,93.43,28.53,88.87,27.55,83a65.29,65.29,0,0,1-.4-7.64c-.25-4.71-.07-9.44-.07-14.16a16.81,16.81,0,0,1,.26,2.32c.11.66-.58,1.9.65,1.88,1.07,0,.68-1.22.73-2s0-1.7,0-2.56q-.21-16-.44-32c0-.24,0-.48,0-.73a82.89,82.89,0,0,1,0-15.11C28.32,12.3,28.09,11.91,27.32,11.85ZM38.08,78.61c.73-.29.55-.79.55-1.16-.18-13.14.44-26.29-.36-39.43,0-.45.19-1.15-.48-1.2-.87-.06-.61.75-.61,1.22,0,12.6-.24,25.2.38,37.79A19.3,19.3,0,0,0,38.08,78.61Z"/><path class="cls-8" d="M27.32,11.85c.77.06,1,.45.93,1.23a82.89,82.89,0,0,0,0,15.11c0,.25,0,.49,0,.73q.22,16,.44,32c0,.86,0,1.71,0,2.56s.34,1.93-.73,2c-1.23,0-.54-1.22-.65-1.88a16.81,16.81,0,0,0-.26-2.32c0,4.72-.18,9.45.07,14.16a65.29,65.29,0,0,0,.4,7.64c1,5.87,3.55,10.43,9.46,12.51.67.24,1,.61.9,1.35l-.67.14A4,4,0,0,0,33,96.93c-1.72.92-2,.66-2-1.34,0-.65.46-1.48-.51-1.89-3.54-3.83-4.52-8.44-4.68-13.54-.24-7.55-.69-15.09-.75-22.65,0-1-.17-1.93-.26-2.9.5-.51.3-1.15.3-1.74,0-3,0-6,.07-8.95,0-.41-.28-1,.45-1.17.54.46,0,1.33.61,1.75.44-.19.35-.53.35-.81q-.19-12.49-.4-25a1.54,1.54,0,0,0-.1-.35C26.16,16.11,26.08,13.85,27.32,11.85ZM26.49,47,26.34,47v1.32h.15Z"/><path class="cls-11" d="M46.69,29c-.62-2,0-4-.4-6.16-.87,1.09-1,2.37-1.65,3.41-.4.67-.39,1.66-1.61,1.7s-1.29-.91-1.66-1.6c-.51-.95-.95-1.93-1.59-3.27a16.16,16.16,0,0,0-.29,4.74C39.5,29,39,29,38.13,29s-1.37,0-1.34-1.14c.08-2.74,0-5.49.06-8.23,0-.56-.45-1.57.69-1.49s2.26-.69,2.91.74L43,24.44c.76-1.7,1.49-3.08,2-4.53s1.27-2.12,2.78-1.92c.46.17,1.07-.14,1.43.39v9.15C49.39,29.74,47.7,28.8,46.69,29Z"/><path class="cls-11" d="M53.31,28.48c-3.61-3-3.69-6.68-.2-9.78,3-1.37,5.91-1,7.68,1.05s1.78,4.95,0,7.73l-.61.54a7.64,7.64,0,0,1-5.81.93l-.14,0Zm6-4.89c0-1.92-1.17-3.29-2.84-3.32s-2.84,1.22-2.88,3.23,1,3.29,2.78,3.32A3,3,0,0,0,59.28,23.59Z"/><path class="cls-7" d="M26,18.33a1.54,1.54,0,0,1,.1.35q.21,12.51.4,25c0,.28.09.62-.35.81-.63-.42-.07-1.29-.61-1.75-.73.16-.44.76-.45,1.17,0,3,0,6-.07,8.95,0,.59.2,1.23-.3,1.74-.58-.47-.35-1.12-.38-1.71-.17-3.88-.22-7.78-.23-11.65,0-6.35,0-12.71.32-19.06C24.52,20.93,24.08,19,26,18.33Z"/><path class="cls-11" d="M67,18.06c1.09,0,2.18,0,3.27,0,.81,0,1.38,0,1.36,1.1s-.31,1.37-1.25,1.2c-1.76-.33-2,.59-1.89,2.06.11,1.82,0,3.65,0,5.46C68.58,29.14,67.8,29,67,29s-1.34-.12-1.3-1.17c.08-1.94-.07-3.89,0-5.82.06-1.26-.32-1.77-1.61-1.64-.77.07-1.68.32-1.68-1.14s.84-1.17,1.66-1.17Z"/><path class="cls-7" d="M30.43,93.7c1,.41.5,1.24.51,1.89,0,2,.32,2.26,2,1.34a4,4,0,0,1,4.26.07,10.65,10.65,0,0,0-.39,2.12c0,1.73.21,3.49-2.32,3.5a15.28,15.28,0,0,1-4.31-2.47,8.69,8.69,0,0,0-.6-3.87A1.69,1.69,0,0,1,30.43,93.7Z"/><path class="cls-11" d="M75.67,23.68v3.64c0,.9.24,1.77-1.29,1.71-1.28-.05-1.49-.51-1.46-1.62.06-2.72.07-5.45,0-8.17,0-1,.32-1.28,1.24-1.18.73.08,1.63-.24,1.56,1.08-.07,1.51,0,3,0,4.54Z"/><path class="cls-7" d="M54.22,28.91l.14,0c.9,1.57,2.36.51,3.54.72.54.1,1.39-.82,1.53.39a1.48,1.48,0,0,1-1.17,1.79,9.44,9.44,0,0,0-3.14.71.69.69,0,0,1-1-.53C54.09,31,52.89,29.9,54.22,28.91Z"/><path class="cls-7" d="M60.17,28l.61-.54c.4.15.81.33.77.84a.55.55,0,0,1-.6.54C60.44,28.84,60.29,28.43,60.17,28Z"/><path class="cls-2" d="M28.86,131c.7.25,1.41.62,1.3-.72-.09-1,0-2.05,0-3.35l6,3-.17.21c-1.24.6-.4,1.71-.59,2.57a10.25,10.25,0,0,0,0,2.1c-2.49-.8-5-1.41-6.73-3.56Z"/><path class="cls-2" d="M48.12,137.69a19.93,19.93,0,0,1,7.86.71,20.42,20.42,0,0,1-7.83,0Z"/><path class="cls-3" d="M48.12,137.69l0,.74-1,.07-1.2-.1a4,4,0,0,1-2-3.85C45.05,136,45.91,137.78,48.12,137.69Z"/><path class="cls-2" d="M29.22,126.22c.28.09.59.18.59.56,0,.07-.13.2-.21.2-.37,0-.5-.24-.6-.53Z"/><path class="cls-2" d="M45.93,138.4l1.2.1A.8.8,0,0,1,45.93,138.4Z"/><path class="cls-2" d="M36.17,129.86c.23.17.84-.06.68.39s-.59.08-.85-.18Z"/><path class="cls-4" d="M29.07,135c0,.16.09.32.14.48h0l-.37.34v0l-.44-.09C28.32,135.3,28.6,135.08,29.07,135Z"/><path class="cls-2" d="M38,130.35c.11,0,.28,0,.31.1.11.26-.12.25-.26.24s-.2-.09-.29-.14Z"/><path class="cls-2" d="M26.93,124.11l.32.39-.22.14-.13-.49Z"/><path class="cls-4" d="M28.38,136.2c.05.33,0,.62-.35.75C28,136.61,28,136.3,28.38,136.2Z"/><path class="cls-2" d="M26.9,124.15l-.18-.19.21.15Z"/><path class="cls-2" d="M28.65,131.18c-.06-.09-.19-.22-.17-.26.14-.22.26-.06.38.05Z"/><path class="cls-2" d="M28.29,125.68c-.07-.08-.21-.21-.2-.23.17-.23.26-.06.35.09Z"/><path class="cls-2" d="M28.65,126.06l-.36-.38.15-.14.38.36Z"/><path class="cls-2" d="M28.82,125.9l.4.32-.22.23-.35-.39Z"/><path class="cls-6" d="M28.35,135.81l.44.09-.39.32Z"/><path class="cls-8" d="M73.35,108.78c.09,5,.09,5-5,4.61-4.9-.37-9.81-.21-14.71-.17s-9.82-.28-14.58,1.24c-.6.19-.8,0-.81-.56,0-.73,0-1.46,0-2.19.13-2.94.45-3.08,3.39-2.73,3.61.43,7.23.77,10.87,1,5.31.31,10.55-.31,15.81-.49C70,109.42,71.61,108.55,73.35,108.78Z"/><path class="cls-11" d="M31.34,105.49l4.72,2.15c0,.25,0,.5,0,.75-1-.3-1.6-.31-1.49,1,.2,2.61-.51,5.18-.4,7.8.05,1.07,0,2.33-1.41,2.87-.79.32-1.09.26-1.05-.69.13-3.18.29-6.36.27-9.53,0-1,.66-2,.12-3.27-.78.8-.16,1.75-.7,2.66-.05-.92-.1-1.66-.15-2.4Z"/><path class="cls-8" d="M35.78,115.72A12.17,12.17,0,0,1,36,111.3,11.54,11.54,0,0,1,35.78,115.72Z"/><path class="cls-1" d="M67.9,121.56c.5.14,1-.66,1.5,0C68.89,122,68.39,122.19,67.9,121.56Z"/><path class="cls-9" d="M80.64,143.08l-.37.36-.61.2c-.39-.6.77-1.5-.23-1.87a2,2,0,0,0-2.53,1.15c-.51,1.16.65,1.1,1.31,1.36a3.58,3.58,0,0,1-3.32-.06c-.22-1.12-.38-2.28-1.72-2.68l.31-1c.29.07.68,0,.85.23a1.17,1.17,0,0,0,1.89,0c.68-.64,2-1,1.19-2.37,1.32-.3,2.65-.2,3.38,1A3.5,3.5,0,0,1,80.64,143.08Z"/><path class="cls-11" d="M77.41,138.48c.79,1.38-.51,1.73-1.19,2.37a1.17,1.17,0,0,1-1.89,0c-.17-.18-.56-.16-.85-.23-.07-.27.1-.33.31-.34l.35-.33A3.74,3.74,0,0,1,77.41,138.48Z"/><path class="cls-11" d="M78.21,144.28c-.66-.26-1.82-.2-1.31-1.36a2,2,0,0,1,2.53-1.15c1,.37-.16,1.27.23,1.87A2.18,2.18,0,0,1,78.21,144.28Z"/><path class="cls-8" d="M73.17,141.54c1.34.4,1.5,1.56,1.72,2.68C73.6,143.78,72.81,143,73.17,141.54Z"/><path class="cls-9" d="M74.14,139.91l-.35.33Z"/><path class="cls-9" d="M35,138.17a4.49,4.49,0,0,1,3,1.46c1.44,1.43,1.26,2.89-.45,4.2-.16-.82.82-1.69-.19-2.5s-1.51.27-2.24.48c-.17.05-.34.2-.5.19-1.42-.12-1.54.77-1.45,1.83-.55.14-.83-.65-1.41-.4h0c-.7-1.44-2-2.86-.09-4.34.46.52-.34,1.85,1,1.76.91-.06,2-.29,2.29-1.43A5.28,5.28,0,0,0,35,138.17Z"/><path class="cls-11" d="M33.15,143.83c-.09-1.06,0-2,1.45-1.83.16,0,.33-.14.5-.19.73-.21,1.23-1.29,2.24-.48s0,1.68.19,2.5A4.16,4.16,0,0,1,33.15,143.83Z"/><path class="cls-11" d="M35,138.17a5.28,5.28,0,0,1-.05,1.26c-.32,1.14-1.38,1.37-2.29,1.43-1.3.09-.5-1.24-1-1.76A3.08,3.08,0,0,1,35,138.17Z"/><path class="cls-8" d="M35,137.24c-1-.26-1.68.23-2.38-.14C33.5,136.08,33.5,136.08,35,137.24Z"/><path class="cls-6" d="M28.8,135.87l.37-.34Z"/><path class="cls-2" d="M52.09,155.37c3.1-.32,4.06.56,4.1,3.66a22.85,22.85,0,0,1-2,9.84c-1.39-.48-1.63-1.61-1.68-2.89C52.34,162.45,52.73,158.89,52.09,155.37Z"/><path class="cls-3" d="M52.09,155.37c.64,3.52.25,7.08.39,10.61.05,1.28.29,2.41,1.68,2.89l.06,0-.66.53a5.66,5.66,0,0,1-2.23-1.67c0-.51.08-1,.13-1.55a2.19,2.19,0,0,0-.13-1.49c.05-2.91.11-5.82.16-8.73l.58-.66Z"/><path class="cls-2" d="M52.07,155.33l-.58.66a.74.74,0,0,1-.4-.75c0-.48-.05-1.21.49-1.19C52.32,154.06,52.11,154.81,52.07,155.33Z"/><path class="cls-2" d="M53.56,169.43l.66-.53a.91.91,0,0,1,1.21.6Z"/><path class="cls-2" d="M51.33,164.72a2.19,2.19,0,0,1,.13,1.49A1.16,1.16,0,0,1,51.33,164.72Z"/><path class="cls-6" d="M52.88,173.56l-.15-.21.21.15Z"/><path class="cls-6" d="M52.94,173.5l.35.36,0,.06-.36-.37Z"/><path class="cls-6" d="M38.08,78.61a19.3,19.3,0,0,1-.52-2.78c-.62-12.59-.35-25.19-.38-37.79,0-.47-.26-1.28.61-1.22.67,0,.45.75.48,1.2.8,13.14.18,26.29.36,39.43C38.63,77.82,38.81,78.32,38.08,78.61Z"/><path class="cls-6" d="M46.69,29c1-.23,2.7.71,2.54-1.5A2.07,2.07,0,0,1,51,28.93a1.29,1.29,0,0,1-.31,1.65.87.87,0,0,1-1.46-.41c-.25-.58-.8-.42-1.26-.44S46.79,29.81,46.69,29Z"/><path class="cls-7" d="M26.49,47v1.25h-.15V47Z"/><path class="cls-7" d="M59.28,23.59a3,3,0,0,1-2.94,3.23c-1.74,0-2.82-1.32-2.78-3.32s1.15-3.27,2.88-3.23S59.28,21.67,59.28,23.59Z"/></g></g></svg>