<svg xmlns="http://www.w3.org/2000/svg" viewBox="0 0 98.55 164.7"><defs><style>.cls-1{fill:#efefef;}.cls-2{fill:#dadada;}.cls-3{fill:#4e7fc0;}.cls-4{fill:#315fa9;}.cls-5{fill:#1b4188;}.cls-6{fill:#121815;}.cls-7{fill:#434345;}.cls-8{fill:#e94441;}.cls-9{fill:#28282a;}.cls-10{fill:#848383;}.cls-11{fill:#d6e7c6;}</style></defs><title>011Recurso 2Ing. Carlos</title><g id="Capa_2" data-name="Capa 2"><g id="Capa_1-2" data-name="Capa 1"><path class="cls-1" d="M49,.05A38.89,38.89,0,0,1,62.27,1.79a46.89,46.89,0,0,1,17.6,9.15A55.33,55.33,0,0,1,91.4,24.42a45.2,45.2,0,0,1,6.28,16.9A73.77,73.77,0,0,1,98.46,56c-.3,6-2.08,11.5-3.55,17.19a53.46,53.46,0,0,1-4.13,11.11c-2.51,4.87-4.52,10-7.39,14.69-.73,1.2-.76,2.21.45,3.15a36,36,0,0,1,9.35,11.51,27.35,27.35,0,0,1,3.29,11.08C97.31,136.1,92.3,144.9,84,152.26c-7.94,7-17.34,10.74-27.64,12-13.16,1.58-25.7-.86-37-8-7.49-4.75-13.41-11.11-16.27-19.73a28.41,28.41,0,0,1,3-25,31.64,31.64,0,0,1,8-9.14,2.39,2.39,0,0,0,.72-3.49c-2-3.73-4.07-7.44-5.81-11.3A138,138,0,0,1,3.66,73.71C2.47,70,1.7,66.23.8,62.48a40.8,40.8,0,0,1-.44-5.07,52.26,52.26,0,0,1,2-21.62c2.23-7.25,6.2-13.48,10.93-19.32A43.64,43.64,0,0,1,26.6,5.61,49.32,49.32,0,0,1,43.37.38,36.87,36.87,0,0,1,49,.05ZM85.53,20.54c0-.54,0-1.08-.74-1.1h0a1.54,1.54,0,0,0-1.52-1.83,6.49,6.49,0,0,1-1.77-1.81A1.59,1.59,0,0,0,79.65,14a4.14,4.14,0,0,1-1.43-1.42c0-.77-.55-.79-1.1-.79-.55-.36-1.11-.7-1.64-1.08A42.17,42.17,0,0,0,64.6,4.78a45.53,45.53,0,0,0-44.79,7.9,43.42,43.42,0,0,0-13,18.61,29.49,29.49,0,0,1-1.35,2.77c-.93.34-1.09,1-.73,1.85,0,.24,0,.49,0,.73-1,.16-1,1.08-1,1.7-.31,4.58-2.61,9-1.17,13.73a1.76,1.76,0,0,1,0,.91c-.77,3.1-.1,6.16.38,9.18A88.36,88.36,0,0,0,7.14,78c1.28,3.6,3,7,4.49,10.48,1.42,3.2,3.39,6.1,4.74,9.35.67,1.62.2,3.63,1.62,4.9s2.18,2.88,3.27,4.32l-.13.58c-.76.09-1.06.74-1.5,1.21-1.38,1.47-2,3.47-3.22,5-1.4-.92-1.71-2.56-2.52-3.94a3.39,3.39,0,0,0-.45.35C9.28,115.67,8.3,122,9.22,128.43c1.1,7.66,5.32,13.86,11.38,18.53a45.31,45.31,0,0,0,32.59,9.34c9.19-.79,17.49-3.75,24.66-9.66,7.4-6.11,11.73-13.72,11.3-23.52A21.37,21.37,0,0,0,85.71,112c-.68-1-1.27-.76-1.45.16a11.34,11.34,0,0,1-1.69,3.56c-.14-.11-.35-.2-.41-.34a21,21,0,0,0-3.77-6.41c-.34-.37-.81-1.07-.37-1.48,1-.94,1.06-2.55,2.48-3.26a3.93,3.93,0,0,0,1.69-2.5c.29-.93-.52-1.24-1.07-1.7s-.1-.74.12-1.11c2.13-3.61,3.9-7.41,5.68-11.2a119.4,119.4,0,0,0,8.35-23A55.33,55.33,0,0,0,96.41,45a48.3,48.3,0,0,0-6.8-20c-.54-.88-1.1-1.77-2.25-1.95h0c0-.54,0-1.08-.74-1.1h0c.05-.8-.13-1.43-1.1-1.46Z"/><path class="cls-2" d="M74.54,105c1.91-3.52,3.84-7,5.72-10.56,5.08-9.61,10-19.35,12.45-30,3.1-13.42,2.69-26.64-4.34-39a21.69,21.69,0,0,1-1-2.32c1.15.18,1.71,1.07,2.25,1.95a48.3,48.3,0,0,1,6.8,20A55.33,55.33,0,0,1,95.27,64.7a119.4,119.4,0,0,1-8.35,23c-1.78,3.79-3.55,7.59-5.68,11.2-.22.37-.58.72-.12,1.11s1.36.77,1.07,1.7a3.93,3.93,0,0,1-1.69,2.5c-1.42.71-1.45,2.32-2.48,3.26-.44.41,0,1.11.37,1.48a21,21,0,0,1,3.77,6.41c.06.14.27.23.42.34a11.38,11.38,0,0,0,.32,2.16,20.14,20.14,0,0,1,.22,9.33c-2.19,9.43-8.37,15.42-16.76,19.42-7.4,3.54-15.27,4.21-23.31,3.1-9.43-1.31-17.58-5.17-23.51-12.83a21.48,21.48,0,0,1-4.74-16,51.53,51.53,0,0,1,1.61-7.05c1.26-1.55,1.84-3.55,3.22-5,.44-.47.74-1.12,1.5-1.21.71.36.76,1,.81,1.71.35,4.37.35,4.37,2.2,7.93.13.27.18.58.33.84,2,3.58,2.22,8,5.4,11a2.32,2.32,0,0,1,.41,1c.94,3.11,2.26,5.88,5.81,6.8,1.09.28,1.54,1.36,2.06,2.22a5.76,5.76,0,0,0,3.09,2.71,29.77,29.77,0,0,1,4.56,1.84,10,10,0,0,0,7.38.83c2.54-.88,5.31-1.69,7.47-3.86s4.86-3.29,7.07-5.34c1.38-1.28,2.16-3.29,4-3.92,2.91-1,3.91-3.83,4.93-5.94.91-1.88,1-4.65,1.06-7A10.22,10.22,0,0,0,76.23,114a5.59,5.59,0,0,1-.43-4.52C76.31,107.79,76.44,106.07,74.54,105Z"/><path class="cls-3" d="M74.54,105c1.9,1.06,1.77,2.78,1.26,4.46a5.59,5.59,0,0,0,.43,4.52,10.22,10.22,0,0,1,1.46,4.46c0,2.37-.15,5.14-1.06,7-1,2.11-2,4.95-4.93,5.94-1.82.63-2.6,2.64-4,3.92-2.21,2-5,3.28-7.07,5.34s-4.93,3-7.47,3.86a10,10,0,0,1-7.38-.83,29.77,29.77,0,0,0-4.56-1.84,5.76,5.76,0,0,1-3.09-2.71c-.52-.86-1-1.94-2.06-2.22-3.55-.92-4.87-3.69-5.81-6.8a2.32,2.32,0,0,0-.41-1c-3.18-3-3.4-7.45-5.4-11-.15-.26-.2-.57-.33-.84-1.85-3.56-1.85-3.56-2.2-7.93-.05-.67-.1-1.35-.81-1.71.05-.19.09-.39.13-.58.89-.3,1-1.56,2.09-1.63,6,10.14,12.48,20,19.34,29.55,3.21,4.49,8.6,4.79,12,.45a198.79,198.79,0,0,0,11.73-17.19C69.14,113.83,71.83,109.41,74.54,105Z"/><path class="cls-2" d="M23.35,105.41c-1.06.07-1.2,1.33-2.09,1.63-1.09-1.44-1.88-3.08-3.27-4.32s-.95-3.28-1.62-4.9c-1.35-3.25-3.32-6.15-4.74-9.35C10.09,85,8.42,81.59,7.14,78A88.36,88.36,0,0,1,2.81,62.16c-.48-3-1.15-6.08-.38-9.18a1.76,1.76,0,0,0,0-.91C1,47.34,3.32,42.92,3.63,38.34c.05-.62,0-1.54,1-1.7A59,59,0,0,0,3.8,57.92C5,67.23,8.51,75.7,12.17,84.15c3.08,7.09,7.08,13.7,10.86,20.43A6.81,6.81,0,0,1,23.35,105.41Z"/><path class="cls-2" d="M81.51,15.8A7.6,7.6,0,0,1,79.65,14,1.59,1.59,0,0,1,81.51,15.8Z"/><path class="cls-2" d="M84.8,19.44a3,3,0,0,1-1.52-1.83A1.54,1.54,0,0,1,84.8,19.44Z"/><path class="cls-2" d="M5.41,34.06a4.14,4.14,0,0,1-.73,1.85C4.32,35.05,4.48,34.4,5.41,34.06Z"/><path class="cls-2" d="M86.63,22a1.82,1.82,0,0,1-1.1-1.46C86.5,20.57,86.68,21.2,86.63,22Z"/><path class="cls-2" d="M78.22,12.53a1.27,1.27,0,0,1-1.1-.79C77.67,11.74,78.22,11.76,78.22,12.53Z"/><path class="cls-2" d="M87.36,23.1a1.16,1.16,0,0,1-.74-1.1C87.39,22,87.38,22.56,87.36,23.1Z"/><path class="cls-2" d="M85.53,20.54a1.17,1.17,0,0,1-.74-1.1C85.56,19.46,85.55,20,85.53,20.54Z"/><path class="cls-4" d="M7.32,52.36V47.25c.55-.61.69-.45.66.3A54,54,0,0,0,8.72,59c.28,1.73.68,3.44,1.07,5.15a1.46,1.46,0,0,0,1.43,1.18c.7-.07.37-.9.39-1.4.07-1.77-.55-3.48-.37-5.26a10.15,10.15,0,0,0,.35-3.25c-.12-.6-.78-1.35.05-1.78.65-.34,1.25.27,1.75.7,1.27,1.06,2.28.83,3.17-.53a7,7,0,0,1,3.62-2.49c-.3,1.46-.69,2.9-.86,4.37-.61,5.14.37,10.14,1.54,15.1a10.29,10.29,0,0,0,5.51,6.83c2.14,1.16,3.68-.08,5.28-1.16.75,3.5,2.85,6.59,2.74,10.4A6.28,6.28,0,0,0,39,93.34c.25,1,1,1.11,1.86,1.09a18.5,18.5,0,0,0,8.16-2.05,3,3,0,0,1,2.94-.1c1.62.79,3.33,1.39,5,2,2.3.9,5,1.14,7.08-.11a31.68,31.68,0,0,0,6.37-5.56c1-1,2.3-1.83,2.81-3.28a4.49,4.49,0,0,1,2-2.27,8.82,8.82,0,0,0,3.88-4.44c.86-3,2.34-5.9,1.67-9.18a3.61,3.61,0,0,1,.06-1.08c.37-3.5.9-7-.58-10.39a49.64,49.64,0,0,1-2.14-6.48C78,51,78,50.12,77,50.15c-1.89-4.87-4.76-8.88-9.73-11-.81-.35-.71-1-.77-1.64a16.48,16.48,0,0,0-6.57-12.14c-4.86-3.73-10.3-4.55-16.16-3.1a1.94,1.94,0,0,1,1.75-2.18,5.61,5.61,0,0,0,3-1.55,4,4,0,0,1,4.34-.85c1.77.67,2.69.18,3.19-1.67.57-2.07,1.79-2.66,4-2.18a3.15,3.15,0,0,0,2.3-.17,3.24,3.24,0,0,1,3.6.22C67.59,15,69.53,15.28,71.32,16c.41.15.88.31,1.18-.08s-.15-.65-.32-1A3.39,3.39,0,0,1,72,13.34C82.64,20.85,88.59,31.14,90.2,44a52,52,0,0,1-1.33,19.4,111.7,111.7,0,0,1-10,25.25c-2.18,4.07-4.18,8.25-6.73,12.12-.78-.5-1.38-.56-1.88.45-.59,1.2-1.38,2.28-2,3.47-2.15,4.15-5,7.89-7.41,11.85-1.88,3-3.23,6.58-6.46,8.65a1.12,1.12,0,0,0-.46.77c0,1.78-1.38,2.87-2.14,4.28-1,1.86-2.31,2.17-4.2,1.61-.9-.26-1.24-.95-1.69-1.53-1.39-1.82-2.64-3.75-4-5.6-.43-.57-.88-1.55-1.81-.48-3.4-4.59-6.37-9.47-9.31-14.36C24,98.55,17.32,87.18,12.49,74.86,10.08,68.68,8,62.4,7.57,55.71,7.6,54.59,7.89,53.44,7.32,52.36Z"/><path class="cls-3" d="M72,13.34A3.39,3.39,0,0,0,72.18,15c.17.3.59.59.32,1s-.77.23-1.18.08c-1.79-.7-3.73-1-5.38-2.12a3.24,3.24,0,0,0-3.6-.22,3.15,3.15,0,0,1-2.3.17c-2.22-.48-3.44.11-4,2.18-.5,1.85-1.42,2.34-3.19,1.67a4,4,0,0,0-4.34.85,5.61,5.61,0,0,1-3,1.55,1.94,1.94,0,0,0-1.75,2.18l-.5.22C36.51,25.41,31.85,30,31.47,37.8a1.45,1.45,0,0,1-1.1,1.43c-3.52,1.42-5.81,4.14-7.74,7.28-.94,1.54-1.24,3.4-2.45,4.79a7,7,0,0,0-3.62,2.49c-.89,1.36-1.9,1.59-3.17.53-.5-.43-1.1-1-1.75-.7-.83.43-.17,1.18-.05,1.78a10.15,10.15,0,0,1-.35,3.25c-.18,1.78.44,3.49.37,5.26,0,.5.31,1.33-.39,1.4a1.46,1.46,0,0,1-1.43-1.18C9.4,62.42,9,60.71,8.72,59A54,54,0,0,1,8,47.55c0-.75-.11-.91-.66-.3a7.55,7.55,0,0,1,.26-3.34c.24.39-.23,1.1.58,1.34a48.08,48.08,0,0,1,2.19-10.13c.19-.52-.15-.62-.55-.67L10,34l.19-.4A37.89,37.89,0,0,1,20.33,17.8,40.29,40.29,0,0,1,49.69,6,37.66,37.66,0,0,1,72,13.34Z"/><path class="cls-5" d="M40.09,124.2c.93-1.07,1.38-.09,1.81.48,1.36,1.85,2.61,3.78,4,5.6.45.58.79,1.27,1.69,1.53,1.89.56,3.19.25,4.2-1.61.76-1.41,2.09-2.5,2.14-4.28a1.12,1.12,0,0,1,.46-.77c3.23-2.07,4.58-5.62,6.46-8.65,2.45-4,5.26-7.7,7.41-11.85.61-1.19,1.4-2.27,2-3.47.5-1,1.1-1,1.88-.45-6.07,11-12.83,21.45-20,31.74-2.08,3-4.35,3-6.46,0A94.67,94.67,0,0,1,40.09,124.2Z"/><path class="cls-4" d="M9.8,34.45c.4,0,.74.15.55.67A48.08,48.08,0,0,0,8.16,45.25c-.81-.24-.34-1-.58-1.34A30,30,0,0,1,9.8,34.45Z"/><path class="cls-3" d="M7.32,52.36c.57,1.08.28,2.23.25,3.35A8.06,8.06,0,0,1,7.32,52.36Z"/><path class="cls-4" d="M10.14,33.57,10,34Z"/><path class="cls-5" d="M77,50.15c1,0,1,.82,1.16,1.39A49.64,49.64,0,0,0,80.28,58c1.48,3.36,1,6.89.58,10.39a3.61,3.61,0,0,0-.06,1.08c.67,3.28-.81,6.23-1.67,9.18a8.82,8.82,0,0,1-3.88,4.44,4.49,4.49,0,0,0-2,2.27c-.51,1.45-1.84,2.25-2.81,3.28a31.68,31.68,0,0,1-6.37,5.56c-2.08,1.25-4.78,1-7.08.11-1.66-.66-3.37-1.26-5-2a3,3,0,0,0-2.94.1,18.5,18.5,0,0,1-8.16,2.05c-.81,0-1.61-.09-1.86-1.09,2.77.16,4.54-1.34,5.88-3.55.9.41.92-.5,1.31-.86,1.69-1.56,2.88-4.15,6-2.92a9.4,9.4,0,0,0,1.57,4.78c2,3.23,7.28,3.41,8.9.15a12.54,12.54,0,0,0,1.43-6.11,3.4,3.4,0,0,1,.24-2.13c1.18-1.85,1.22-4,1.57-6a1.35,1.35,0,0,1,1,.29c2.33,1.48,3.78,1.46,6-.12a8.92,8.92,0,0,0,3.63-4.68,79.12,79.12,0,0,0,2-9C79.26,58.71,78.19,54.41,77,50.15Z"/><path class="cls-1" d="M77,50.15c1.21,4.26,2.28,8.56,1.57,13a79.12,79.12,0,0,1-2,9,8.92,8.92,0,0,1-3.63,4.68c-2.2,1.58-3.65,1.6-6,.12a1.35,1.35,0,0,0-1-.29.12.12,0,0,0-.11-.14l.07-.7c.67-.37.27-1,.33-1.49.8-.14,1.56.13,1.69.91.33,2,1.6,1.57,2.74,1.13A7.42,7.42,0,0,0,75,71.74a63.13,63.13,0,0,0,1.78-7.33,22.32,22.32,0,0,0-.34-9.58c-.3-1.38-.36-2.89-1.45-4l0,0-.08-.67A7.83,7.83,0,0,0,74.57,49c-2-4.24-4.93-7.52-9.7-8.72a4.88,4.88,0,0,1-.17-1.06A15.56,15.56,0,0,0,48,23.28C39.43,24,33.36,30.15,32.85,40a17,17,0,0,0-9,8,27.27,27.27,0,0,0-2.89,13.73c.08,1.59-.17,3.31.92,4.73l.5,1.62a6.7,6.7,0,0,0,1.46,5.24.19.19,0,0,0,.09.16.35.35,0,0,0,.21.25,4.29,4.29,0,0,0,1.78,1.7l-.05,0c1.74,1.46,3.6,1.65,3.91.31.25-1.07.84-1.28,1.64-1.5a2.46,2.46,0,0,1,.27,2.2c-1.6,1.08-3.14,2.32-5.28,1.16a10.29,10.29,0,0,1-5.51-6.83c-1.17-5-2.15-10-1.54-15.1.17-1.47.56-2.91.86-4.37,1.21-1.39,1.51-3.25,2.45-4.79,1.93-3.14,4.22-5.86,7.74-7.28a1.45,1.45,0,0,0,1.1-1.43c.38-7.83,5-12.39,11.78-15.34l.5-.22c5.86-1.45,11.3-.63,16.16,3.1a16.48,16.48,0,0,1,6.57,12.14c.06.67,0,1.29.77,1.64C72.22,41.27,75.09,45.28,77,50.15Z"/><path class="cls-6" d="M31.65,76.44a2.46,2.46,0,0,0-.27-2.2c.2-1.09-.31-2.14-.32-3.35.65.44.88,1.18,1.63,1.21l.86.83,1.55,1.83,0,.64a1.83,1.83,0,0,1-1.14-.5.64.64,0,0,0-.83,0c-.28.23-.19.54-.1.84.57,1.92,1,3.86,1.71,5.75a6.79,6.79,0,0,0,2.86,3.44c2.4,1.54,6.16,0,7-2.79.42-1.4.31-2.35-1.48-2.8-1.24-.31-2.83-.23-3.61-1.67.58.17,1.16.35,1.74.49,7.75,1.89,15.19,1.59,22-3.06-.08.41-.13.82-.24,1.22-.17.63-.21,1.24.47,1.56s1.12,0,1.33-.7a1,1,0,0,1,1-.63.12.12,0,0,1,.11.14c-.35,2.06-.39,4.2-1.57,6a3.4,3.4,0,0,0-.24,2.13,12.54,12.54,0,0,1-1.43,6.11C61,94.2,55.76,94,53.74,90.79A9.4,9.4,0,0,1,52.17,86c-.41-1.86-2-3.25-2-5.33,0-.56-.88-.46-1.42-.48s-1.07.15-1.22.82c-.7,3-2.15,5.73-2.62,8.77C43.57,92,41.8,93.5,39,93.34a6.28,6.28,0,0,1-4.64-6.5C34.5,83,32.4,79.94,31.65,76.44Zm4.51,9.19c-.07-.27-.09-.66-.49-.51s-.14.37.07.53c.08,4,.38,4.48,3,5.15a13.17,13.17,0,0,1,1.55.45c.65.27,1.18.34,1.48-.44s.47-1.57-.36-2.11a27.23,27.23,0,0,0-5.25-3Zm20.84,0h.55c2.14.16,3.4-1.26,4.78-2.56,1.18-1.12-.37-1.84-.26-2.78,0-.28-.19-.58-.19-.88-.05-2.08-.16-2.2-2.17-1.44a21.32,21.32,0,0,1-6.25,1.77c-1.5.09-1.71.85-1.55,2C52.23,84.14,54.25,85.66,57,85.66Z"/><path class="cls-7" d="M44.91,89.79c.47-3,1.92-5.79,2.62-8.77.15-.67.63-.83,1.22-.82s1.42-.08,1.42.48c0,2.08,1.59,3.47,2,5.33-3.07-1.23-4.26,1.36-6,2.92C45.83,89.29,45.81,90.2,44.91,89.79Z"/><path class="cls-5" d="M64.87,40.29c4.77,1.2,7.67,4.48,9.7,8.72a7.83,7.83,0,0,1,.37,1.19c-.53.29-.46.51.08.67l0,0c-.5,2.39,1,4.41,1.24,6.68.36,3.78.38,7.46-2.38,10.49a3.23,3.23,0,0,1-3.52,1.24,2.69,2.69,0,0,1-2-3.09c0-.85,0-1.71,0-2.56a9.24,9.24,0,0,0-.57-3.76c-.16-.44-.34-1.09-.88-1-.7.06-.43.77-.43,1.2,0,2.13,0,4.26,0,6.39a2.81,2.81,0,0,1-.93,2.41c-.72.66-1.72,1.61-1.52,2.58.35,1.77-.73,2.45-1.84,3.12-8.22,4.93-16.65,5-25.23,1,.95.08,1.28-1.61,2.51-.81,2.31,1.49,4.67,1,7.09.16,1-.35,2.16-.25,3.21-.52,3.21-.83,6.22-2.28,8.17-5,1.53-2.11,2.09-4.84,3.61-7.06.56-.81,0-1.77-1-2.19a5,5,0,0,0-2.67-.4A21,21,0,0,1,48.12,59c-2.3-.73-4.73-1-6.13-3.31A14.16,14.16,0,0,0,52.86,57.1c1.42-.39,2.89-.81,3.8-2.17l0,0,.67-.16.88-.74,0,0a22.88,22.88,0,0,0,5.14-6.62c2.87-1.34,3.27-2.75,1.53-5.35Z"/><path class="cls-6" d="M58.18,54.05l-.88.74a.47.47,0,0,0-.67.16l0,0c-3.49,1.62-7.08,2.59-10.94,1.63-1.34-.34-2.66-.77-4-1.15a25,25,0,0,1-7.21-8.19L33.11,42a3,3,0,0,0-.26-2c.51-9.84,6.58-16,15.19-16.71A15.56,15.56,0,0,1,64.7,39.23a4.88,4.88,0,0,0,.17,1.06c0,.58,0,1.16,0,1.75l-1.53,5.35A22.88,22.88,0,0,1,58.22,54h-.11Zm-2-18.82c-1-2.95.27-7.84-4.94-9.65a.77.77,0,0,1-.26-.25,2.21,2.21,0,0,0-2.31-.75c-1.31.19-2.63.39-3.92.7-1.47.35-3,.68-3.54,2.44-.17.53-.65.44-1.06.5a3.4,3.4,0,0,0-2.92,3.19c0,.72.23,1.61-.33,2.12-2,1.8-1.08,3.88-.63,5.87.83,3.67,2.67,6.74,6.4,7.94,3,1,6-.18,8.81-1.36a3.5,3.5,0,0,0,1.3-1A13.13,13.13,0,0,0,56.2,35.23Z"/><path class="cls-7" d="M37,75.47c8.58,4,17,3.94,25.23-1,1.11-.67,2.19-1.35,1.84-3.12-.2-1,.8-1.92,1.52-2.58a2.81,2.81,0,0,0,.93-2.41c0-2.13-.06-4.26,0-6.39,0-.43-.27-1.14.43-1.2.54,0,.72.61.88,1a9.24,9.24,0,0,1,.57,3.76c0,.85,0,1.71,0,2.56a2.69,2.69,0,0,0,2,3.09A3.23,3.23,0,0,0,73.84,68c2.76-3,2.74-6.71,2.38-10.49C76,55.24,74.48,53.22,75,50.83c1.09,1.11,1.15,2.62,1.45,4a22.32,22.32,0,0,1,.34,9.58A63.13,63.13,0,0,1,75,71.74a7.42,7.42,0,0,1-4.39,4.62c-1.14.44-2.41.82-2.74-1.13-.13-.78-.89-1-1.69-.91.22-.73.45-1.46.67-2.2.31-.91.56-1.84.94-2.72.14-.33.55-.55,0-.8a.51.51,0,0,0-.72.35c-.18,1.25-1.37,2-1.63,3.16L63.9,74.66l-.68.4c-6.84,4.65-14.28,5-22,3.06-.58-.14-1.16-.32-1.74-.49L35.06,75.4c0-.21,0-.42,0-.64Zm37.25-5.24c.07-1-.26-1.14-1.15-.63s-1.69,1-2.57.64c-1.93-.77-2.21.71-2.78,1.85-.22.44-.43,1,0,1.33s1-.08,1.37-.45.45-1.06,1.08-.6a1.19,1.19,0,0,1,.21,1.36,4.59,4.59,0,0,1-.64,1.08c-.16.24-.45.47-.21.78s.55.16.84.07C72.14,75.17,74.3,72.13,74.28,70.23Z"/><path class="cls-7" d="M32.69,72.1c-.75,0-1-.77-1.63-1.21,0,1.21.52,2.26.32,3.35-.8.22-1.39.43-1.64,1.5-.31,1.34-2.17,1.15-3.91-.31.6-.15,1.85.63,1.46-1-.16-.67-.46-1.45.26-1.81s.92.6,1.36.94.84.61,1.32.37c.72-.35.12-.86,0-1.23-.51-1.5-1-2.79-3.22-2.46-1.78.26-3.14-1.34-4.66-2.18-.17-.54-.34-1.08-.5-1.62a.52.52,0,0,1,.66-.35c.23.86,1,1.3,1.54,1.89.73,1.42,2,1.38,3.32,1.26,1-.1,2-.57,1.76-1.84-.32-1.66.22-3.25.27-4.88A5.42,5.42,0,0,1,31.23,59C31.59,63.58,30.39,68,32.69,72.1Z"/><path class="cls-5" d="M22.5,66.13a.52.52,0,0,0-.66.35c-1.09-1.42-.84-3.14-.92-4.73A27.27,27.27,0,0,1,23.81,48a17,17,0,0,1,9-8,3,3,0,0,1,.26,2,.29.29,0,0,1-.28.07c-.3-1.11-.88-.2-1.18-.08-4.82,2-6.91,6.19-8.34,10.84A33.21,33.21,0,0,0,22.5,66.13Z"/><path class="cls-8" d="M22.34,68.1c1.52.84,2.88,2.44,4.66,2.18,2.22-.33,2.71,1,3.22,2.46.13.37.73.88,0,1.23-.48.24-.91-.06-1.32-.37s-.66-1.29-1.36-.94-.42,1.14-.26,1.81c.39,1.59-.86.81-1.46,1l.05,0a2.21,2.21,0,0,0-1.78-1.7.32.32,0,0,1-.2-.24c-.06,0,.18-.26-.1-.17A6.7,6.7,0,0,1,22.34,68.1Z"/><path class="cls-9" d="M63.22,75.06l.68-.4c.89,0,1.22.9,1.94,1.15l-.07.7a1,1,0,0,0-1,.63c-.21.74-.65,1-1.33.7s-.64-.93-.47-1.56C63.09,75.88,63.14,75.47,63.22,75.06Z"/><path class="cls-6" d="M65.84,75.81c-.72-.25-1-1.17-1.94-1.15.5-.85,1-1.7,1.52-2.55h1.42c-.22.74-.45,1.47-.67,2.2C66.11,74.83,66.51,75.44,65.84,75.81Z"/><path class="cls-7" d="M24.1,73.75a2.21,2.21,0,0,1,1.78,1.7A4.29,4.29,0,0,1,24.1,73.75Z"/><path class="cls-7" d="M75,50.87c-.54-.16-.61-.38-.08-.67Z"/><path class="cls-7" d="M23.8,73.34c.28-.09,0,.13.1.17A.21.21,0,0,1,23.8,73.34Z"/><path class="cls-4" d="M22.5,66.13a33.21,33.21,0,0,1,.81-13.31C24.74,48.17,26.83,44,31.65,42c.3-.12.88-1,1.18.08-.13.52-.26,1-.4,1.55a2.16,2.16,0,0,0-.72,0c-1.07.39-1.58,1.5-2.5,2-2.08,1.2-2.43,2-1.95,4.18.27,1.28.81,1.3,2,1.31,2.69,0,3.95-1.13,4.13-3.71,0-.15.21-.29.32-.43l.8.21a25,25,0,0,0,7.21,8.19l.26.26c1.4,2.29,3.83,2.58,6.13,3.31a21,21,0,0,0,9.83.71,5,5,0,0,1,2.67.4c1,.42,1.56,1.38,1,2.19-1.52,2.22-2.08,5-3.61,7.06-1.95,2.68-5,4.13-8.17,5-1.05.27-2.2.17-3.21.52-2.42.82-4.78,1.33-7.09-.16-1.23-.8-1.56.89-2.51.81l-1.93-.71-1.55-1.83c1.12-1,.89-2,.11-3.05-.45-.58-1.12-1.12-1.11-1.84,0-2.54-1.29-4.93-.81-7.51a4.22,4.22,0,0,0,0-1.46,1.24,1.24,0,0,0-.91-1c-.52-.15-.62.46-.94.67-1.09.72-1,2.65-2.82,2.63-.34,0-.25.32-.2.56.45,2.08-.93,3.68-1.48,5.5A1,1,0,0,1,24,68C23.48,67.43,22.73,67,22.5,66.13Z"/><path class="cls-9" d="M35.06,75.4l4.39,2.23c.78,1.44,2.37,1.36,3.61,1.67,1.79.45,1.9,1.4,1.48,2.8-.82,2.8-4.58,4.33-7,2.79a6.79,6.79,0,0,1-2.86-3.44C34,79.56,33.56,77.62,33,75.7c-.09-.3-.18-.61.1-.84a.64.64,0,0,1,.83,0A1.83,1.83,0,0,0,35.06,75.4Z"/><path class="cls-9" d="M57,85.66c-2.75,0-4.77-1.52-5.09-3.87-.16-1.17.05-1.93,1.55-2A21.32,21.32,0,0,0,59.71,78c2-.76,2.12-.64,2.17,1.44,0,.3.23.6.19.88-.11.94,1.44,1.66.26,2.78-1.38,1.3-2.64,2.72-4.78,2.56Z"/><path class="cls-5" d="M24,68a1,1,0,0,0,1.31-.64c.55-1.82,1.93-3.42,1.48-5.5,0-.24-.14-.57.2-.56,1.79,0,1.73-1.91,2.82-2.63.32-.21.42-.82.94-.67a1.24,1.24,0,0,1,.91,1,4.22,4.22,0,0,1,0,1.46c-.48,2.58.84,5,.81,7.51,0,.72.66,1.26,1.11,1.84.78,1,1,2.07-.11,3.05l-.86-.83C30.39,68,31.59,63.58,31.23,59a5.42,5.42,0,0,0-1.84,3.53c-.05,1.63-.59,3.22-.27,4.88.25,1.27-.72,1.74-1.76,1.84C26.08,69.4,24.77,69.44,24,68Z"/><path class="cls-9" d="M36.17,85.65a27.23,27.23,0,0,1,5.25,3c.83.54.66,1.34.36,2.11s-.83.71-1.48.44a13.17,13.17,0,0,0-1.55-.45,2,2,0,0,0-.83-1.34A5.29,5.29,0,0,1,36.17,85.65Z"/><path class="cls-7" d="M36.17,85.65a5.29,5.29,0,0,0,1.75,3.81,2,2,0,0,1,.83,1.34c-2.63-.67-2.93-1.18-3-5.15l.42,0Z"/><path class="cls-9" d="M36.16,85.63l-.42,0c-.21-.16-.36-.41-.07-.53S36.09,85.36,36.16,85.63Z"/><path class="cls-8" d="M42,55.67l-.26-.26c1.33.38,2.65.81,4,1.15,3.86,1,7.45,0,10.94-1.63-.91,1.36-2.38,1.78-3.8,2.17A14.16,14.16,0,0,1,42,55.67Z"/><path class="cls-10" d="M63.36,47.39,64.89,42C66.63,44.64,66.23,46.05,63.36,47.39Z"/><path class="cls-8" d="M58.18,54.05l-.07,0h.11Z"/><path class="cls-8" d="M56.63,55a.47.47,0,0,1,.67-.16Z"/><path class="cls-9" d="M56.2,35.23A13.13,13.13,0,0,1,52.8,45a3.5,3.5,0,0,1-1.3,1c-2.82,1.18-5.78,2.33-8.81,1.36-3.73-1.2-5.57-4.27-6.4-7.94-.45-2-1.4-4.07.63-5.87.56-.51.28-1.4.33-2.12a3.4,3.4,0,0,1,2.92-3.19c.41-.06.89,0,1.06-.5.54-1.76,2.07-2.09,3.54-2.44,1.29-.31,2.61-.51,3.92-.7a2.21,2.21,0,0,1,2.31.75.77.77,0,0,0,.26.25C56.47,27.39,55.21,32.28,56.2,35.23Zm-11,1a1.18,1.18,0,0,0-.71-.93c-.92-.5-3.32.91-3.15,1.92.11.67,0,1.67,1.1,1.83A9.29,9.29,0,0,0,45.2,36.27Z"/><path class="cls-11" d="M34.52,47.22l-.8-.21a8.4,8.4,0,0,1-1.29-3.4c.14-.52.27-1,.4-1.55a.29.29,0,0,0,.28-.07Z"/><path class="cls-10" d="M74.28,70.23c0,1.9-2.14,4.94-3.83,5.43-.29.09-.61.22-.84-.07s0-.54.21-.78a4.59,4.59,0,0,0,.64-1.08,1.19,1.19,0,0,0-.21-1.36c-.63-.46-.77.31-1.08.6s-.78.91-1.37.45-.24-.89,0-1.33c.57-1.14.85-2.62,2.78-1.85.88.35,1.79-.2,2.57-.64S74.35,69.28,74.28,70.23Z"/><path class="cls-9" d="M66.84,72.12H65.42c.26-1.19,1.45-1.91,1.63-3.16a.51.51,0,0,1,.72-.35c.56.25.15.47,0,.8C67.4,70.28,67.15,71.21,66.84,72.12Z"/><path class="cls-3" d="M32.43,43.61A8.4,8.4,0,0,0,33.72,47c-.11.14-.31.28-.32.43C33.22,50,32,51.17,29.27,51.15c-1.2,0-1.74,0-2-1.31-.48-2.22-.13-3,1.95-4.18.92-.52,1.43-1.63,2.5-2A2.16,2.16,0,0,1,32.43,43.61Z"/><path class="cls-7" d="M45.2,36.27a9.29,9.29,0,0,1-2.76,2.82c-1.06-.16-1-1.16-1.1-1.83-.17-1,2.23-2.42,3.15-1.92A1.18,1.18,0,0,1,45.2,36.27Z"/></g></g></svg>